<?xml version="1.0" encoding="utf-8"?>
<!-- Generator: Adobe Illustrator 16.0.3, SVG Export Plug-In . SVG Version: 6.00 Build 0)  -->
<!DOCTYPE svg PUBLIC "-//W3C//DTD SVG 1.1//EN" "http://www.w3.org/Graphics/SVG/1.1/DTD/svg11.dtd">
<svg version="1.1" id="Layer_1" xmlns="http://www.w3.org/2000/svg" xmlns:xlink="http://www.w3.org/1999/xlink" x="0px" y="0px"
	 width="210px" height="40px" viewBox="0 0 210 40" enable-background="new 0 0 210 40" xml:space="preserve">
<g>
	<g>
		<g>
			<g>
				<circle fill="#FFFFFF" cx="20.284" cy="19.825" r="14.051"/>
			</g>
			<path fill="#FFD420" d="M34.333,19.512c0,0.062-0.25,0.272-0.518,0.434c-0.006,0.003-0.012,0.008-0.019,0.012
				c-0.364,0.197-0.876,0.381-1.516,0.549c-0.656,0.174-1.465,0.329-2.354,0.466c-0.892,0.136-1.883,0.239-2.953,0.333
				c0-0.002,0,0.002,0,0c-1.366,0.123-2.227,0.176-3.316,0.229c-1.158,0.048-2.362,0.074-3.582,0.071
				c0,0.156,0.001,0.312,0.001,0.466c0.001,1.1,0.004,2.146,0.01,3.131c0.027,5.394,0.035,5.391,0.197,8.672
				c7.761,0,14.052-6.291,14.052-14.05C34.335,19.825,34.333,19.622,34.333,19.512z"/>
			<polygon fill="#231F20" points="25.514,32.422 25.514,32.42 25.514,32.422 			"/>
			<g>
				<path fill="#231F20" d="M20.077,22.072c0.001,1.1,0.004,2.146,0.01,3.131c2.252,2.133,2.252,2.133,3.189,3.072
					c0.249-1.785,0.387-3.914,0.384-6.274c-0.001-0.156-0.002-0.311-0.003-0.466c-1.424,0.057-2.362,0.074-3.582,0.071
					C20.075,21.763,20.077,21.918,20.077,22.072z"/>
				<path fill="#231F20" d="M25.232,30.676c-0.492-0.801-0.941-1.322-1.958-2.392c-0.478,3.421-1.33,5.528-2.378,5.573
					c0.088-0.004,0.226-0.012,0.314-0.018c0.113-0.008,0.248-0.02,0.36-0.027C23.023,33.683,24.273,32.566,25.232,30.676z"/>
				<path fill="#231F20" d="M26.807,24.941c0.001-0.021-0.81,4.219-1.575,5.734c0.44,0.849,0.459,1.188,0.282,1.744
					c1.365-1.034,2.489-2.598,3.265-4.53C28.282,26.876,27.942,26.338,26.807,24.941z"/>
				<path fill="#231F20" d="M22.784,33.655c0.306-0.052,0.289-0.06,0.854-0.187l0.337-0.098c1.038-0.322,1.22-0.484,1.542-0.965
					c-0.926,0.697-1.916,1.125-3.022,1.297L22.784,33.655z"/>
				<path fill="#231F20" d="M29.028,30.207c2.026-2.295,3.263-5.536,3.258-9.233c0-0.157-0.001-0.31-0.005-0.466
					c-0.656,0.174-1.465,0.329-2.354,0.466c0.012,0.155,0.017,0.313,0.017,0.469c0.005,2.404-0.404,4.59-1.147,6.438
					C29.214,28.951,29.222,29.401,29.028,30.207z"/>
				<path fill="#231F20" d="M26.974,21.307c-1.366,0.123-2.227,0.176-3.316,0.229c1.926,2.002,2.335,2.473,3.149,3.406
					c0.115-0.994,0.173-2.05,0.173-3.152C26.979,21.631,26.977,21.465,26.974,21.307z"/>
			</g>
			<path fill="#231F20" d="M17.202,6.5c0.784-0.317,1.536-0.646,3.052-0.731l0,0C19.228,5.862,18.156,6.149,17.202,6.5"/>
			<g>
				<path fill="#E03A3E" d="M29.692,20.973c-0.732-0.099-1.345-1.334-1.022-2.592c-1.029,0.71-2.188-0.751-2.018-2.103
					c0.088-0.716,0.557-1.352,1.377-1.058c-0.333-1.143-0.75-2.225-1.237-3.221c-0.726,0.092-1.522,0.168-2.368,0.228
					c0.751,1.136,0.014,2.192-1.035,2.023c-0.759-0.122-1.468-0.919-1.27-1.867c-0.617,0.428-1.88,0.259-1.999-1.087
					c-0.032,2.856-0.05,6.512-0.046,10.312c3.734,0.038,8.11-0.36,9.852-0.632c0,0,0,0.005,0,0
					C29.854,20.979,29.761,20.98,29.692,20.973z"/>
			</g>
			<g>
				<path fill="#E03A3E" d="M11.204,23.793c1.045-0.404,2.358,1.402,1.898,2.607c-0.212,0.558-0.761,0.713-1.337,0.379
					c0.312,1.053,0.714,2.017,1.197,2.868c0.738,0.103,1.568,0.19,2.476,0.258c-0.729-0.896-0.145-1.631,0.828-1.582
					c0.835,0.042,1.941,0.737,1.703,1.687c0.751-0.341,2.022-0.064,2.175,0.916c-0.037-2.107-0.061-5.201-0.067-8.854
					c0-0.158-0.002-0.306-0.002-0.466c-1.186,0.003-2.387-0.041-3.583-0.091c-2.541-0.104-4.268-0.251-6.395-0.613
					c0,0.007,0-0.006,0,0C11.187,21.271,11.487,22.893,11.204,23.793z"/>
			</g>
			<path fill="#E03A3E" d="M26.94,10.847L26.94,10.847L26.94,10.847c0.003,0,0.008-0.001,0.011-0.001h-0.001
				c0,0,0.004,0,0.008-0.002c0.136-0.022,0.264-0.044,0.388-0.067c0.805-0.147,2.629-0.584,2.629-1.116c0,0,0.714,0.717,1.24,1.714
				c0.062,0.109,0.103,0.208,0.159,0.364c0.062,0.177,0.102,0.381,0.095,0.479c-0.023,0.303-0.217,0.308-0.418,0.22
				c-0.021-0.008-0.041-0.015-0.064-0.026c-0.721-0.326-0.959-0.989-1.098-1.261c-0.367,0.114-0.974,0.38-1.478,0.477
				c-0.06,0.012-0.167,0.037-0.228,0.048c0.596,0.981,1.162,2.149,1.569,3.281c0.708-0.728,1.815,0.622,1.868,1.925
				c0.032,0.766-0.312,1.447-1.012,1.201c0.56,1.037,0.382,2.558-0.681,2.891c-0.178-3.41-0.755-6.435-3.001-10.12l0,0l0,0"/>
			<path fill="#E03A3E" d="M26.926,10.854L26.926,10.854L26.926,10.854L26.926,10.854L26.926,10.854
				c-1.79-2.734-3.202-3.728-5.017-4.445c-0.362-0.142-1.591-0.623-1.654-0.64l0.006,0.012l0,0c0.321,0.468,0.962,0.745,1.101,0.787
				c-0.04,0.17-0.01,0.509,0.581,0.938c0.092,0.066,0.182,0.119,0.268,0.161c0.914,0.478,1.114,0.106,1.157-0.042
				c0.005-0.004,0.011-0.008,0.016-0.013c0.28,0.206,0.822,0.644,1.421,1.322c0.346,0.415,0.671,0.776,0.917,1.14
				c-0.564,0.072-1.313,0.138-2.053,0.19c-0.042-0.897-0.69-1.344-1.096-1.495c-0.89-0.331-1.182,0.717-0.797,1.453
				c-0.704-0.38-1.538-0.041-1.654,1.073C22.903,11.277,24.811,11.154,26.926,10.854L26.926,10.854L26.926,10.854"/>
			<path fill="#E03A3E" d="M27.101,8.307c-0.008-0.013-0.015-0.06-0.006-0.098c0.009-0.037,0.039-0.067,0.039-0.067
				s0.016-0.036,0.068-0.067c0.144-0.083,0.568-0.125,1.745,0.688C26.51,6.846,23.887,6.06,21.66,5.84
				c-0.315-0.035-0.897-0.059-0.897-0.059c0.709,0.063,1.189,0.25,1.303,0.291c0.09,0.031,0.163,0.079,0.205,0.117
				c0.004-0.001,0.008-0.001,0.008-0.001c0.14,0.015,0.302,0.044,0.501,0.101c0.219,0.063,0.581,0.195,0.903,0.349
				c0.324,0.152,0.804,0.495,0.807,0.688c-0.074,0.044-0.098,0.057-0.315,0c0.831,0.591,2.023,1.707,2.727,2.531
				c0.485-0.092,1.205-0.195,1.54-0.309C28.417,9.571,27.34,8.764,27.101,8.307z"/>
			<path fill="#E03A3E" d="M12.816,30.425c-1.207-0.218-1.899-0.397-2.361-0.634c-0.076-0.041-0.1-0.041-0.118-0.045
				c-0.011-0.002-0.687-0.695-1.28-1.465c-0.433-0.56-0.796-1.193-0.835-1.251c0.004,0.005,0.098,0,0.156,0.019
				c0.63,0.21,1.617,1.932,1.628,1.952c0.391,0.144,0.899,0.28,1.513,0.406c-0.577-0.87-1.061-1.847-1.432-2.911
				c-0.876,0.442-1.994-1.873-1.641-2.85c0.072-0.2,0.304-0.615,0.898-0.166c-0.448-1.031-0.326-2.58,0.754-2.578
				C10.122,24.318,10.59,27.263,12.816,30.425"/>
			<path fill="#E03A3E" d="M20.125,31.122c-0.122,0.488-0.804,0.954-1.771,0.559c0.453,0.597,0.061,1.112-0.733,0.968
				c-0.618-0.111-1.351-0.608-1.409-1.105c-0.763-0.059-1.461-0.131-2.082-0.219c0.59,0.686,1.246,1.245,1.956,1.66
				c0.085-0.035,0.216-0.028,0.637,0.121c0.54,0.189,1.054,0.441,1.59,0.634c0,0-0.113-0.019-0.112-0.019
				c-0.41-0.061-0.509-0.084-0.737-0.13c-1.034-0.203-2.838-0.792-4.648-3.166h0h0l0,0c2.181,0.338,4.305,0.484,7.329,0.503
				C20.139,30.986,20.138,31.066,20.125,31.122"/>
			<path fill="#FFD420" d="M20.254,5.769c-7.534,0-13.876,6.149-14.02,13.786l0.004,0.013c0.006,0.023,0.076,0.164,0.371,0.348l0,0
				l0,0c0.297,0.187,0.734,0.384,1.312,0.532c0.714,0.184,1.464,0.334,2.163,0.454l0.014,0.001c2.127,0.362,3.854,0.51,6.395,0.613
				c1.196,0.05,2.397,0.094,3.583,0.091c-0.001-0.716-0.005-4.797,0.027-8.738c0.004-0.508,0.01-1.04,0.018-1.574
				C20.151,8.727,20.206,6.113,20.254,5.769L20.254,5.769z"/>
			<path fill="#231F20" d="M26.986,32.178c-0.795,0.445-0.949,0.456-2.017,0.896c-0.297,0.122-0.575,0.193-0.881,0.281
				c1.895-0.511,4.487-2.635,4.942-3.149c-0.23,0.511-0.404,0.849-0.963,1.301C27.914,31.631,27.244,32.033,26.986,32.178z"/>
			<path fill="#231F20" d="M7.921,20.447c-0.585-0.143-1.015-0.345-1.312-0.532c0.156-5.083,2.982-9.593,7.096-12.065
				c-0.972,0.863-1.406,1.378-1.896,2.546C9.501,13.048,8.025,16.615,7.921,20.447"/>
			<path fill="#231F20" d="M13.72,7.843c1.031-0.744,1.617-1.285,3.25-1.676c1.146-0.277,2.15-0.395,3.284-0.397l0,0
				C17.886,5.87,15.66,6.68,13.72,7.843"/>
			<path fill="#231F20" d="M12.968,21.289c-1.026-0.099-1.997-0.234-2.87-0.387c0.058-2.546,0.59-4.989,1.512-7.152
				c0.357,1.42,0.661,2.185,1.664,3.869C13.094,18.808,12.988,20.04,12.968,21.289"/>
			<path fill="#231F20" d="M20.121,11.295c-0.018,1.546-0.026,3.137-0.03,4.366c-0.008,1.216-0.013,2.097-0.013,2.268
				c-1.382-1.449-2.122-2.263-3.132-3.546c0.679-4.37,1.905-7.821,3.309-8.613l0,0l0,0C20.204,6.185,20.151,8.666,20.121,11.295z"/>
			<g>
				<path fill="#231F20" d="M15.189,11.128c-0.883,1.862-1.543,4.092-1.907,6.489c0.858,1.276,1.389,2.023,3.101,3.895
					c0.02-2.512,0.223-4.949,0.564-7.14C15.919,12.97,15.593,12.303,15.189,11.128z"/>
			</g>
			<path fill="#231F20" stroke="#231F20" stroke-width="0" stroke-linecap="round" stroke-linejoin="round" d="M33.797,19.958
				c0.003,0.154,0.008,0.309,0.008,0.465c0.007,4.967-2.417,9.1-6.215,11.388l-0.101,0.075c1.785-1.096,4.039-2.947,5.474-6.012
				c1.538-3.021,1.37-6.363,1.37-6.363C34.256,19.648,34.03,19.822,33.797,19.958z"/>
			<g>
				<path fill="#231F20" d="M17.202,6.5c-2.049,0.803-3.895,2.179-5.39,3.895c-0.409,1.277-0.407,1.991-0.203,3.356
					c0.912-2.13,2.186-3.977,3.691-5.356C15.765,7.591,16.056,7.11,17.202,6.5z"/>
			</g>
			<path fill="#231F20" d="M15.184,11.136c-0.253-1.147-0.273-1.731,0.112-2.73c1.466-1.351,3.158-2.355,4.959-2.637
				C18.282,6.297,16.495,8.366,15.184,11.136"/>
			<path fill="#FFFFFF" d="M3.344,9.405l0.081,0.04c-0.138,0.286-0.073,0.444,0.198,0.58l1.144,0.568
				c0.526,0.261,0.924,0.875,0.466,1.796c-0.401,0.808-1.068,0.996-1.676,0.695L2.32,12.468c-0.271-0.133-0.352-0.078-0.499,0.208
				l-0.081-0.04l0.541-1.09l0.081,0.04l-0.019,0.038c-0.116,0.234-0.104,0.366,0.142,0.488l1.18,0.585
				c0.572,0.284,1.083,0.119,1.396-0.514c0.237-0.479,0.28-1.063-0.441-1.422l-0.988-0.491c-0.408-0.201-0.511-0.173-0.703,0.17
				l-0.081-0.04L3.344,9.405z"/>
			<path fill="#FFFFFF" d="M8.243,8.001L4.701,8.224l1.553,1.308c0.261,0.22,0.364,0.206,0.623-0.101l0.069,0.058L6.238,10.33
				L6.17,10.271l0.013-0.015c0.188-0.224,0.172-0.36,0.006-0.5l-1.78-1.501C4.282,8.29,4.173,8.36,4.061,8.482L3.993,8.424
				l0.479-0.567l3.213-0.208l-1.44-1.214C6.024,6.25,5.93,6.281,5.678,6.565L5.61,6.506L6.324,5.66l0.068,0.058
				c-0.229,0.271-0.23,0.369-0.089,0.487l2.02,1.702L8.243,8.001z"/>
			<path fill="#FFFFFF" d="M9.967,6.478L9.082,7.212L9.024,7.143C9.24,6.945,9.24,6.848,9.037,6.604L7.748,5.053
				c-0.163-0.197-0.277-0.194-0.49-0.036L7.201,4.947l0.884-0.735l0.058,0.069C7.914,4.473,7.876,4.589,8.079,4.834L9.36,6.378
				c0.178,0.214,0.297,0.239,0.549,0.03L9.967,6.478z"/>
			<path fill="#FFFFFF" d="M11.71,5.393L9.529,3.704C9.276,3.506,9.191,3.473,8.942,3.619L8.896,3.542l1.124-0.659l0.046,0.078
				C9.694,3.189,9.655,3.328,9.842,3.469l1.808,1.399l-0.344-2.064c-0.021-0.141-0.045-0.238-0.079-0.293
				c-0.071-0.123-0.201-0.113-0.48,0.051l-0.045-0.079l0.947-0.554l0.046,0.078c-0.214,0.125-0.266,0.286-0.215,0.597l0.435,2.671
				L11.71,5.393z"/>
			<path fill="#FFFFFF" d="M15.187,2.617l-0.084,0.028c-0.147-0.305-0.243-0.312-0.427-0.248l-0.757,0.261l0.331,0.953
				c0.071,0.206,0.161,0.22,0.326,0.162l0.689-0.236c0.313-0.108,0.366-0.261,0.345-0.686l0.081-0.026l0.157,0.691l-2.376,0.819
				L13.441,4.25l0.125-0.044c0.359-0.123,0.387-0.242,0.294-0.511l-0.652-1.889c-0.085-0.25-0.181-0.338-0.481-0.235L12.63,1.606
				L12.6,1.52l2.148-0.741L15,1.389l-0.083,0.028c-0.188-0.36-0.329-0.402-0.49-0.347l-0.944,0.326l0.38,1.101l0.8-0.276
				c0.161-0.055,0.211-0.158,0.145-0.426l0.084-0.029L15.187,2.617z"/>
			<path fill="#FFFFFF" d="M16.982,0.329c0.084-0.019,0.145-0.027,0.233-0.037c0.724-0.085,0.962,0.228,1.014,0.667
				c0.068,0.563-0.25,0.825-0.772,0.885c-0.108,0.014-0.178,0.027-0.292,0.026L16.982,0.329z M17.176,1.96
				c0.076-0.004,0.137-0.006,0.24-0.02c0.126-0.015,0.202-0.028,0.319-0.048c0.122,0.064,0.303,0.18,0.533,0.362l0.348,0.274
				c0.468,0.368,0.701,0.521,1.518,0.386l-0.009-0.085c-0.366,0.021-0.673-0.12-0.983-0.364l-0.417-0.328
				c-0.247-0.196-0.402-0.31-0.593-0.425c0.372-0.159,0.576-0.483,0.535-0.835c-0.057-0.479-0.49-0.79-1.359-0.686
				c-0.305,0.035-0.399,0.051-0.591,0.084c-0.191,0.032-0.475,0.084-0.587,0.098l0.01,0.089l0.104-0.012
				c0.272-0.033,0.362,0.043,0.397,0.333l0.235,1.979c0.037,0.314-0.052,0.401-0.33,0.435l-0.08,0.01l0.011,0.089l1.331-0.159
				L17.797,3.05l-0.108,0.012c-0.263,0.032-0.383-0.025-0.417-0.307L17.176,1.96z"/>
			<path fill="#FFFFFF" d="M20.813,2.232c0.067,0.427,0.378,0.698,0.746,0.727c0.316,0.024,0.665-0.133,0.695-0.505
				c0.053-0.68-1.445-1.007-1.38-1.833c0.03-0.39,0.412-0.655,0.893-0.618c0.396,0.031,0.467,0.157,0.632,0.169
				c0.038,0.002,0.058-0.005,0.089-0.042l0.074,0.007l0.035,0.604l-0.081-0.007c-0.106-0.35-0.391-0.589-0.717-0.615
				c-0.311-0.025-0.542,0.138-0.563,0.402c-0.052,0.668,1.448,0.968,1.38,1.837c-0.036,0.461-0.473,0.774-1.026,0.73
				c-0.259-0.021-0.579-0.174-0.645-0.179c-0.043-0.003-0.078,0.018-0.1,0.044l-0.08-0.006l-0.042-0.725L20.813,2.232z"/>
			<path fill="#FFFFFF" d="M24.452,3.473l-1.124-0.244l0.02-0.088c0.29,0.049,0.366-0.013,0.433-0.322l0.429-1.97
				c0.055-0.25-0.017-0.338-0.273-0.408l0.018-0.088l1.125,0.244l-0.02,0.088c-0.29-0.063-0.407-0.02-0.475,0.29l-0.426,1.96
				c-0.06,0.273-0.005,0.382,0.313,0.451L24.452,3.473z"/>
			<path fill="#FFFFFF" d="M26.838,3.813c-0.095,0.238-0.048,0.353,0.221,0.459l0.162,0.065L27.188,4.42l-1.386-0.55l0.033-0.083
				l0.164,0.063c0.268,0.108,0.38,0.055,0.475-0.182l0.863-2.174L26.569,1.19c-0.177-0.069-0.297,0-0.515,0.362l-0.08-0.033
				l0.354-0.685l0.083,0.033c-0.006,0.029,0.004,0.054,0.027,0.072c0.023,0.019,0.052,0.036,0.083,0.049l2.116,0.838
				c0.063,0.024,0.133,0.038,0.163-0.011l0.084,0.032l-0.213,0.74l-0.079-0.031c0.088-0.413,0.049-0.545-0.128-0.616L27.701,1.64
				L26.838,3.813z"/>
			<path fill="#FFFFFF" d="M31.657,4.121c0.271-0.132,0.24-0.248-0.012-0.416l0.051-0.076l0.89,0.594l-0.051,0.075
				c-0.281-0.16-0.465-0.13-0.699-0.019l-1.393,0.671l-0.393,0.59c-0.14,0.208-0.121,0.34,0.119,0.501l0.05,0.035l-0.05,0.074
				l-1.08-0.723l0.048-0.075l0.076,0.051c0.244,0.164,0.375,0.121,0.504-0.073l0.37-0.555l0.03-1.562
				c0.011-0.431-0.043-0.548-0.294-0.726l0.05-0.075l1.047,0.699l-0.05,0.074c-0.308-0.204-0.376-0.142-0.379,0.117l-0.02,1.393
				L31.657,4.121z"/>
			<path fill="#FFFFFF" d="M35.567,9.759c-0.533,0.407-1.299,0.527-1.768-0.087c-0.461-0.605-0.328-1.462,0.374-1.999
				c0.453-0.344,1.27-0.552,1.775,0.111C36.423,8.404,36.269,9.225,35.567,9.759z M35.963,10.018C36.64,9.5,36.66,8.522,36.117,7.81
				c-0.61-0.802-1.581-0.973-2.33-0.402c-0.703,0.536-0.704,1.519-0.142,2.257C34.202,10.395,35.201,10.597,35.963,10.018z"/>
			<path fill="#FFFFFF" d="M36.956,12.976l-0.035-0.072c0.243-0.127,0.276-0.253,0.179-0.459l-0.378-0.79l-0.934,0.446
				c-0.24,0.114-0.306,0.21-0.15,0.53l-0.083,0.038l-0.495-1.038l0.081-0.038c0.143,0.256,0.222,0.276,0.567,0.111l1.675-0.799
				c0.274-0.13,0.388-0.212,0.249-0.512l0.082-0.039l0.914,1.914l-0.504,0.24l-0.034-0.073c0.245-0.122,0.306-0.257,0.181-0.521
				l-0.388-0.812l-1.005,0.478l0.404,0.846c0.076,0.158,0.202,0.192,0.392,0.118l0.035,0.072L36.956,12.976z"/>
			<path fill="#FFFFFF" d="M3.821,31.499l1.703-3.142l-0.006-0.01l-2.299,1.467c-0.26,0.166-0.178,0.392-0.029,0.619l-0.093,0.067
				l-0.74-1.02l0.095-0.067c0.259,0.357,0.369,0.345,0.832,0.046l1.99-1.263c0.337-0.216,0.418-0.289,0.218-0.606l0.087-0.064
				l0.537,0.739l-1.61,2.969l3.319-0.615l0.521,0.721l-0.086,0.065c-0.194-0.228-0.267-0.317-0.427-0.186l-2.104,1.765
				c-0.428,0.356-0.4,0.396-0.141,0.752l-0.094,0.068l-0.912-1.26l0.093-0.066c0.167,0.23,0.394,0.41,0.639,0.202l2.089-1.734
				l-0.005-0.009l-3.494,0.676L3.821,31.499z"/>
			<path fill="#FFFFFF" d="M9.813,34.771l-0.843-0.62l1.249-0.83L9.813,34.771z M9.738,35.046l-0.327,1.128
				c-0.016,0.064-0.035,0.162-0.092,0.238c-0.101,0.139-0.225,0.092-0.502-0.113L8.69,36.206l-0.069,0.092l1.34,0.986l0.067-0.093
				c-0.242-0.178-0.31-0.303-0.217-0.633l0.97-3.453l-0.424-0.311l-0.035,0.139l-2.669,1.768c-0.465,0.311-0.561,0.325-0.879,0.096
				l-0.069,0.094l1.125,0.826L7.9,35.625l-0.078-0.057c-0.266-0.196-0.358-0.339-0.262-0.47c0.051-0.069,0.222-0.169,0.325-0.236
				l0.844-0.557L9.738,35.046z"/>
			<path fill="#FFFFFF" d="M13.618,34.961c0.105,0.026,0.18,0.051,0.289,0.09c0.877,0.313,0.972,0.807,0.783,1.338
				c-0.242,0.684-0.753,0.803-1.386,0.578c-0.132-0.044-0.219-0.07-0.35-0.136L13.618,34.961z M12.916,36.939
				c0.089,0.037,0.161,0.07,0.287,0.114c0.154,0.056,0.247,0.082,0.391,0.126c0.104,0.141,0.245,0.375,0.407,0.717l0.243,0.51
				c0.327,0.685,0.506,0.994,1.52,1.303l0.036-0.104c-0.428-0.184-0.702-0.52-0.918-0.974l-0.291-0.61
				c-0.173-0.361-0.286-0.584-0.439-0.824c0.516,0.03,0.935-0.227,1.086-0.652c0.207-0.584-0.113-1.184-1.168-1.558
				c-0.37-0.132-0.486-0.166-0.723-0.237c-0.239-0.072-0.595-0.172-0.73-0.221l-0.039,0.109l0.125,0.043
				c0.331,0.119,0.392,0.254,0.266,0.607l-0.851,2.4c-0.136,0.381-0.288,0.43-0.624,0.311l-0.096-0.034l-0.04,0.109l1.613,0.571
				l0.038-0.107l-0.132-0.047c-0.318-0.113-0.424-0.248-0.303-0.59L12.916,36.939z"/>
			<path fill="#FFFFFF" d="M19.777,36.813c0.223-0.316,0.115-0.428-0.27-0.46l0.009-0.114l1.363,0.115l-0.011,0.113
				c-0.412-0.005-0.602,0.145-0.794,0.412l-1.144,1.609l-0.078,0.902c-0.028,0.32,0.077,0.457,0.445,0.488l0.077,0.006L19.366,40
				l-1.657-0.142l0.01-0.114l0.112,0.01c0.376,0.03,0.496-0.098,0.521-0.393l0.073-0.85l-0.93-1.768
				c-0.255-0.488-0.388-0.584-0.778-0.631l0.01-0.115l1.604,0.139l-0.011,0.114c-0.469-0.042-0.508,0.073-0.352,0.364l0.837,1.571
				L19.777,36.813z"/>
			<path fill="#FFFFFF" d="M24.804,39.527l-2.666,0.451l-0.018-0.113l0.196-0.031c0.275-0.049,0.361-0.155,0.309-0.458l-0.446-2.643
				c-0.054-0.315-0.171-0.431-0.547-0.366l-0.083,0.014l-0.019-0.113l1.759-0.299l0.019,0.113l-0.22,0.039
				c-0.389,0.065-0.482,0.124-0.42,0.494l0.464,2.75c0.026,0.158,0.103,0.21,0.276,0.18l0.876-0.148
				c0.351-0.061,0.436-0.215,0.723-0.797l0.108-0.02L24.804,39.527z"/>
			<path fill="#FFFFFF" d="M27.69,36.506l-0.965,0.404l-0.069-1.498L27.69,36.506z M27.888,36.713l0.799,0.859
				c0.046,0.047,0.12,0.115,0.157,0.205c0.064,0.154-0.037,0.237-0.356,0.371l-0.146,0.06l0.044,0.104l1.535-0.639l-0.044-0.107
				c-0.28,0.117-0.42,0.109-0.655-0.139l-2.46-2.609l-0.486,0.203l0.102,0.102l0.144,3.195c0.022,0.563-0.012,0.648-0.373,0.807
				l0.044,0.105l1.29-0.539l-0.044-0.106l-0.09,0.038c-0.307,0.127-0.475,0.134-0.538-0.018c-0.033-0.077-0.03-0.277-0.035-0.398
				l-0.042-1.012L27.888,36.713z"/>
			<path fill="#FFFFFF" d="M34.43,34.369l-4.502-0.531l1.654,2c0.276,0.336,0.409,0.344,0.806,0.018l0.072,0.088l-1.082,0.893
				l-0.072-0.088l0.018-0.016c0.289-0.239,0.302-0.414,0.124-0.629l-1.894-2.292c-0.17,0.013-0.322,0.075-0.488,0.206L28.99,33.93
				l0.732-0.605l4.088,0.475l-1.534-1.856c-0.234-0.284-0.361-0.265-0.742,0.034l-0.073-0.09l1.091-0.9l0.073,0.088
				c-0.351,0.289-0.374,0.412-0.224,0.594l2.15,2.602L34.43,34.369z"/>
			<path fill="#FFFFFF" d="M33.546,29.713c0.034-0.065,0.108-0.211,0.244-0.42c0.458-0.711,0.869-0.955,1.254-1.038
				c0.494-0.106,0.98,0.056,1.355,0.299c0.523,0.338,0.764,0.825,0.824,1.131c0.112,0.519,0.024,0.865-0.415,1.545
				c-0.259,0.401-0.34,0.372-0.549,0.235L33.546,29.713z M35.896,31.83c0.294,0.189,0.288,0.365,0.111,0.638l-0.056,0.089
				l0.097,0.063l1.051-1.627c0.83-1.285,0.295-2.473-0.471-2.969c-0.839-0.54-1.905-0.387-2.771,0.953
				c-0.171,0.266-0.366,0.579-0.536,0.864c-0.17,0.286-0.321,0.541-0.432,0.736l0.097,0.063l0.064-0.103
				c0.195-0.3,0.332-0.334,0.662-0.121L35.896,31.83z"/>
			<path fill="#FFFFFF" d="M0.889,18.645v2.59c0,0.135,0.028,0.171,0.166,0.171h0.251v0.083H0.183v-0.083h0.242
				c0.144,0,0.17-0.042,0.17-0.175v-2.229c-0.143,0.126-0.395,0.291-0.56,0.367L0,19.306c0.26-0.175,0.629-0.51,0.736-0.661H0.889z"
				/>
			<path fill="#FFFFFF" d="M3.476,20.854c0,0.349-0.257,0.617-0.593,0.617c-0.341,0-0.592-0.28-0.592-0.66
				c0-0.291,0.152-0.514,0.458-0.679C3.27,20.367,3.476,20.556,3.476,20.854z M3.67,19.289c0-0.356-0.358-0.644-0.806-0.644
				c-0.442,0-0.811,0.332-0.811,0.724c0,0.303,0.192,0.53,0.609,0.718c-0.438,0.174-0.65,0.419-0.65,0.732
				c0,0.406,0.382,0.733,0.865,0.733c0.499,0,0.884-0.357,0.884-0.822c0-0.344-0.201-0.58-0.672-0.79
				C3.481,19.783,3.67,19.573,3.67,19.289z M3.402,19.283c0,0.255-0.126,0.46-0.375,0.616c-0.577-0.245-0.71-0.423-0.71-0.669
				c0-0.281,0.239-0.503,0.546-0.503C3.174,18.727,3.402,18.962,3.402,19.283z"/>
			<path fill="#FFFFFF" d="M36.872,18.964h1.058c0.08,0,0.107-0.017,0.13-0.057h0.085l-0.05,0.344h-1.129l-0.034,0.802
				c0.137-0.076,0.299-0.111,0.48-0.111c0.5,0,0.915,0.417,0.915,0.92c0,0.542-0.449,0.953-1.047,0.953
				c-0.357,0-0.651-0.125-0.651-0.281c0-0.075,0.065-0.138,0.146-0.138c0.241,0,0.326,0.313,0.607,0.313
				c0.33,0,0.612-0.346,0.612-0.752c0-0.412-0.282-0.719-0.667-0.719c-0.163,0-0.338,0.066-0.472,0.18l-0.045-0.032L36.872,18.964z"
				/>
			<path fill="#FFFFFF" d="M40.273,20.953c0,0.507-0.214,0.789-0.527,0.789c-0.282,0-0.608-0.246-0.608-0.999
				c0-0.152,0.009-0.215,0.022-0.278c0.274-0.219,0.475-0.269,0.59-0.269C40.05,20.197,40.273,20.475,40.273,20.953z M40.3,18.908
				c-0.935,0.263-1.498,0.919-1.498,1.746c0,0.686,0.384,1.162,0.936,1.162c0.477,0,0.87-0.41,0.87-0.902
				c0-0.456-0.354-0.822-0.792-0.822c-0.219,0-0.393,0.07-0.634,0.259c0.098-0.653,0.469-1.091,1.165-1.376L40.3,18.908z"/>
		</g>
	</g>
	<path fill="#FFFFFF" d="M55.408,21.934h-4.077v-0.319c1.04-0.05,1.258-0.319,1.258-1.443v-7.147c0-0.906-0.319-1.158-1.258-1.208
		v-0.319h4.077v0.319c-1.057,0-1.426,0.235-1.426,1.359v7.114c0,0.991,0.269,1.326,1.426,1.326V21.934z"/>
	<path fill="#FFFFFF" d="M67.556,22.051l-8.691-9.094v7.199c0,1.207,0.268,1.459,1.695,1.459v0.319h-3.893v-0.319h0.067
		c1.04,0,1.376-0.353,1.376-1.124v-8.255c-0.387-0.269-0.822-0.402-1.41-0.419v-0.319h2.635l7.902,8.238v-6.678
		c0-1.023-0.302-1.208-1.644-1.242v-0.319h3.926v0.319c-1.258,0-1.527,0.218-1.527,0.873v9.362H67.556z"/>
	<path fill="#FFFFFF" d="M79.938,22.051l-8.691-9.094v7.199c0,1.207,0.269,1.459,1.695,1.459v0.319h-3.893v-0.319h0.067
		c1.041,0,1.376-0.353,1.376-1.124v-8.255c-0.386-0.269-0.823-0.402-1.409-0.419v-0.319h2.633l7.903,8.238v-6.678
		c0-1.023-0.302-1.208-1.645-1.242v-0.319H81.9v0.319c-1.258,0-1.526,0.218-1.526,0.873v9.362H79.938z"/>
	<path fill="#FFFFFF" d="M88.293,22.201c-3.288,0-6.056-2.114-6.056-5.251c0-3.339,2.566-5.705,6.14-5.705
		c3.17,0,5.888,2.164,5.888,5.184C94.266,19.819,91.548,22.201,88.293,22.201z M87.941,11.665c-2.953,0-4.127,2.751-4.127,4.765
		c0,3.138,2.13,5.353,4.832,5.353c2.735,0,4.043-2.416,4.043-4.798C92.689,13.863,90.709,11.665,87.941,11.665z"/>
	<path fill="#FFFFFF" d="M99.505,22.201l-3.641-9.077c-0.42-1.057-0.621-1.309-1.644-1.309v-0.319h4.614v0.319
		c-1.544,0.034-1.913,0.385-1.594,1.158l3.021,7.517l2.65-6.929c0.184-0.47,0.285-0.806,0.285-1.041c0-0.504-0.42-0.705-1.56-0.705
		v-0.319h3.892v0.319c-0.872,0-1.325,0.403-1.729,1.443l-3.456,8.942H99.505z"/>
	<path fill="#FFFFFF" d="M106.588,17.302l-0.972,2.634c-0.118,0.319-0.336,0.822-0.336,1.057c0,0.453,0.437,0.621,1.359,0.621h0.268
		v0.319h-3.875v-0.319c1.091-0.017,1.275-0.201,1.813-1.662l3.053-8.338l-0.15-0.369h1.459l3.508,9.311
		c0.335,0.89,0.687,1.058,1.525,1.058v0.319h-4.613v-0.319h0.437c0.956,0,1.309-0.101,1.309-0.57c0-0.269-0.118-0.521-0.185-0.688
		l-1.124-3.054H106.588z M108.299,12.655l-1.426,3.91h2.903L108.299,12.655z"/>
	<path fill="#FFFFFF" d="M118.385,20.39c0,0.905,0.301,1.225,1.324,1.225h0.621v0.319h-5.285v-0.319h0.621
		c1.023,0,1.325-0.319,1.325-1.225v-8.289h-2.92c-0.671,0-0.972,0.386-1.224,1.862h-0.303l0.268-2.718h0.319
		c0.018,0.101,0.085,0.168,0.185,0.201c0.101,0.034,0.219,0.05,0.336,0.05h8.07c0.234,0,0.486-0.05,0.52-0.251h0.319l0.269,2.718
		h-0.302c-0.253-1.476-0.554-1.862-1.226-1.862h-2.918V20.39z"/>
	<path fill="#FFFFFF" d="M128.199,21.934h-4.077v-0.319c1.04-0.05,1.259-0.319,1.259-1.443v-7.147c0-0.906-0.319-1.158-1.259-1.208
		v-0.319h4.077v0.319c-1.057,0-1.426,0.235-1.426,1.359v7.114c0,0.991,0.268,1.326,1.426,1.326V21.934z"/>
	<path fill="#FFFFFF" d="M135.063,22.201c-3.289,0-6.058-2.114-6.058-5.251c0-3.339,2.567-5.705,6.14-5.705
		c3.172,0,5.89,2.164,5.89,5.184C141.034,19.819,138.316,22.201,135.063,22.201z M134.709,11.665c-2.953,0-4.127,2.751-4.127,4.765
		c0,3.138,2.131,5.353,4.832,5.353c2.735,0,4.044-2.416,4.044-4.798C139.458,13.863,137.477,11.665,134.709,11.665z"/>
	<path fill="#FFFFFF" d="M152.478,22.051l-8.69-9.094v7.199c0,1.207,0.269,1.459,1.693,1.459v0.319h-3.892v-0.319h0.067
		c1.041,0,1.376-0.353,1.376-1.124v-8.255c-0.386-0.269-0.823-0.402-1.409-0.419v-0.319h2.633l7.902,8.238v-6.678
		c0-1.023-0.301-1.208-1.644-1.242v-0.319h3.926v0.319c-1.259,0-1.526,0.218-1.526,0.873v9.362H152.478z"/>
	<path fill="#FFFFFF" d="M54.243,0.191l1.866,5.067c0.231,0.654,0.272,0.762,0.981,0.803v0.245h-2.847V6.062
		c0.463-0.014,0.926-0.027,0.926-0.409c0-0.204-0.096-0.491-0.191-0.749L54.556,3.76h-1.961L52.281,4.55
		c-0.095,0.245-0.259,0.654-0.259,0.994c0,0.421,0.45,0.463,0.94,0.518v0.245H50.62V6.062c0.695-0.136,0.777-0.368,1.09-1.145
		l1.689-4.331l-0.136-0.395H54.243z M52.744,3.365h1.676l-0.817-2.22L52.744,3.365z"/>
	<path fill="#FFFFFF" d="M64.772,1.935h-0.205c-0.258-0.504-0.79-1.484-2.137-1.484c-1.39,0-2.275,1.389-2.275,3.01
		c0,1.826,1.158,2.751,2.138,2.751c1.335,0,2.125-0.98,2.425-1.362h0.231c-0.204,0.558-0.327,0.803-0.763,1.512
		c-0.299-0.027-0.449-0.027-0.776,0c-0.79,0.067-0.939,0.082-1.171,0.082c-1.988,0-3.16-1.281-3.16-3.038
		c0-2.029,1.716-3.242,3.269-3.242c1.035,0,1.553,0.477,1.866,0.477c0.164,0,0.218-0.055,0.286-0.123h0.218L64.772,1.935z"/>
	<path fill="#FFFFFF" d="M69.982,0.191l1.866,5.067c0.231,0.654,0.272,0.762,0.98,0.803v0.245h-2.847V6.062
		c0.463-0.014,0.925-0.027,0.925-0.409c0-0.204-0.095-0.491-0.19-0.749L70.295,3.76h-1.961L68.021,4.55
		c-0.095,0.245-0.259,0.654-0.259,0.994c0,0.421,0.45,0.463,0.939,0.518v0.245h-2.342V6.062c0.695-0.136,0.776-0.368,1.089-1.145
		l1.689-4.331l-0.136-0.395H69.982z M68.484,3.365h1.676l-0.818-2.22L68.484,3.365z"/>
	<path fill="#FFFFFF" d="M74.909,6.062c0.912-0.041,1.063-0.123,1.063-0.886V1.567c0-0.708-0.081-0.831-1.063-0.844V0.478
		c1.008-0.109,2.111-0.164,2.969-0.164c0.777,0,3.773,0.15,3.773,2.942c0,1.757-1.402,2.67-2.261,2.86
		c-0.695,0.149-1.43,0.19-2.098,0.19h-2.384V6.062z M76.952,5.381c0,0.245,0,0.368,0.041,0.463c0.095,0.164,0.599,0.177,0.803,0.177
		c2.425,0,2.792-1.811,2.792-2.765c0-0.599-0.149-1.839-1.321-2.356c-0.681-0.3-1.553-0.286-2.315-0.272V5.381z"/>
	<path fill="#FFFFFF" d="M86.039,3.134h1.471c0.49,0,0.654,0,0.709-0.736h0.272v1.839h-0.272c-0.027-0.749-0.136-0.804-0.804-0.804
		h-1.376v1.948c0,0.585,0.027,0.585,0.613,0.585h1.034c0.613,0,0.926-0.081,1.186-1.103h0.259l-0.123,1.444h-4.917V6.076
		c0.872,0.027,0.967-0.232,0.967-0.79V1.417c0-0.694-0.204-0.804-0.967-0.79V0.382h4.659l0.054,1.293h-0.246
		c-0.149-0.898-0.367-0.994-1.034-0.994h-1.485V3.134z"/>
	<path fill="#FFFFFF" d="M99.74,0.382v0.245c-0.667,0-0.872,0.055-0.859,0.395c0,0.096,0.015,0.477,0.028,0.777l0.204,3.228
		c0.055,0.817,0.069,1.063,0.968,1.035v0.245h-2.833V6.062c0.585-0.041,0.968-0.082,0.968-0.504c0-0.149-0.014-0.449-0.027-0.613
		l-0.246-3.786l-2.247,5.148h-0.259l-2.179-5.148l-0.341,4.072c-0.014,0.136-0.027,0.326-0.027,0.408
		c0,0.313,0.341,0.422,0.831,0.422v0.245h-2.289V6.062c0.299-0.014,0.777-0.041,0.912-0.218c0.124-0.149,0.151-0.626,0.178-0.954
		l0.299-3.609c0.041-0.572-0.055-0.599-0.831-0.654V0.382h1.947l1.92,4.508l1.962-4.508H99.74z"/>
	<path fill="#FFFFFF" d="M104.809,0.382v0.245c-0.545,0.027-0.586,0.027-0.653,0.082c-0.055,0.041-0.082,0.109-0.082,0.164
		c0,0.109,0.19,0.422,0.313,0.626l1.281,1.934l1.062-1.838c0.149-0.259,0.313-0.545,0.313-0.722c0-0.231-0.313-0.245-0.722-0.245
		V0.382h2.166v0.245c-0.736,0.014-0.777,0.096-1.172,0.749l-1.458,2.52v1.198c0,0.791,0.068,0.967,0.667,0.967h0.382v0.245h-3.065
		V6.062h0.3c0.735,0,0.749-0.096,0.749-0.926v-1.24l-1.757-2.656c-0.367-0.558-0.409-0.613-1.211-0.613V0.382H104.809z"/>
	<path fill="#FFFFFF" d="M120.565,0.382v1.198h-0.245c-0.096-0.64-0.15-0.694-0.218-0.763c-0.069-0.068-0.273-0.122-0.654-0.122
		h-1.362v2.315h1.498c0.491,0,0.723-0.123,0.736-0.64h0.245v1.662h-0.245c-0.041-0.613-0.178-0.722-0.682-0.722h-1.553v2.097
		c0,0.518,0,0.585,0.898,0.654v0.245h-2.654V6.062c0.707-0.068,0.775-0.177,0.775-0.708V1.458c0-0.681-0.054-0.749-0.775-0.831
		V0.382H120.565z"/>
	<path fill="#FFFFFF" d="M126.544,0.15c1.566,0,3.241,1.021,3.241,3.12c0,2.288-1.757,3.2-3.256,3.2c-1.484,0-3.255-0.913-3.255-3.2
		C123.274,1.172,125.032,0.15,126.544,0.15z M126.502,0.382c-1.402,0-2.164,1.349-2.164,2.779c0,1.498,0.367,2.098,0.749,2.479
		c0.408,0.409,0.899,0.6,1.43,0.6c1.034,0,2.206-0.776,2.206-2.956C128.723,1.186,127.675,0.382,126.502,0.382z"/>
	<path fill="#FFFFFF" d="M137.818,5.313l-0.753-0.752c-0.448-0.448-0.733-0.714-1.085-0.991c0.444-0.153,1.257-0.464,1.257-1.553
		c0-1.43-1.443-1.702-2.643-1.702c-0.967,0-1.825,0.109-2.397,0.164v0.245c0.682,0.04,0.764,0.04,0.873,0.19
		c0.108,0.136,0.108,0.354,0.108,0.504v3.855c0,0.517-0.081,0.79-0.749,0.79h-0.219v0.245h3.011V6.062h-0.396
		c-0.586,0-0.668-0.164-0.668-0.967V3.733h0.872c0.229,0.152,0.673,0.531,1.091,0.951l0.63,0.629
		c0.848,0.849,1.276,1.211,2.944,1.135V6.276C138.962,6.229,138.381,5.876,137.818,5.313z M134.772,3.488h-0.614V0.614
		c0.137-0.014,0.369-0.027,0.6-0.027c0.601,0,1.458,0.313,1.458,1.458C136.216,3.161,135.494,3.488,134.772,3.488z"/>
	<g>
		<path fill="#FFFFFF" d="M171.545,14.321v0.331c-1.027,0-1.303,0.092-1.561,0.348c-0.366,0.367-1.283,2.258-2.752,3.965
			c1.009,1.56,1.32,2.661,2.201,2.661c0.368,0,0.827-0.202,1.433-0.624l0.165,0.293c-0.789,0.625-1.561,0.955-2.258,0.955
			c-1.138,0-1.449-0.422-2.459-2.275c-1.358,1.449-2.881,2.275-4.185,2.275c-1.671,0-2.974-1.322-2.974-3.029
			c0-1.504,0.899-2.477,3.212-3.414c-0.789-0.679-1.304-1.597-1.304-2.386c0-1.285,0.992-2.129,2.496-2.129
			c1.359,0,2.332,0.734,2.332,1.781c0,0.844-0.734,1.67-2.074,2.33c1.193,0.808,2.313,1.928,3.193,3.25
			c0.863-1.083,2.295-3.139,2.295-3.634c0-0.257-0.202-0.367-1.01-0.367v-0.331H171.545z M162.883,21.332
			c1.064,0,2.441-0.716,3.229-1.67c-0.808-1.358-1.945-2.569-3.487-3.633c-1.395,0.973-1.963,1.835-1.963,2.974
			C160.662,20.396,161.561,21.332,162.883,21.332z M163.434,11.66c-0.754,0-1.212,0.514-1.212,1.322
			c0,0.771,0.458,1.523,1.358,2.202c0.844-0.496,1.192-1.064,1.192-1.982C164.772,12.265,164.24,11.66,163.434,11.66z"/>
	</g>
	<g>
		<path fill="#FFFFFF" d="M103.158,35.086c-0.419,1.443-0.771,1.896-1.945,1.896h-2.584c-0.621,0-0.906-0.151-0.906-0.923v-3.574
			h2.835c0.688,0,1.006,0.135,1.141,1.326h0.319v-3.188h-0.319c-0.084,0.973-0.369,1.258-0.973,1.258h-3.003v-4.127h3.54
			c0.604,0,1.023,0.302,1.241,1.729h0.303l-0.135-2.332H94.62v0.318h0.368c1.124,0,1.343,0.402,1.343,1.342v7.08
			c0,0.998-0.235,1.369-1.547,1.375c-0.608-0.008-1.152-0.381-1.919-1.547l-1.975-2.999c2.047-0.704,2.198-2.265,2.198-2.718
			c0-1.393-0.99-2.147-1.678-2.482c-0.721-0.354-1.476-0.504-2.801-0.504c-1.426,0-2.853,0.066-4.262,0.185v0.302
			c1.375,0,1.627,0.318,1.627,1.157v6.745c0,1.443,0,1.879-1.611,1.879v0.303h4.798v-0.303c-1.678,0-1.795-0.385-1.795-1.846v-2.248
			h2.231c0.236,0.269,1.175,1.762,1.393,2.098c1.46,2.248,2.52,2.297,3.727,2.299l0,0h8.476l0.269-2.5H103.158z M89.899,32.703
			c-0.588,0.168-1.124,0.185-1.863,0.185h-0.671v-5.537c0.922-0.017,1.979-0.05,2.785,0.336c1.124,0.537,1.343,1.712,1.343,2.382
			C91.493,31.076,91.058,32.368,89.899,32.703z"/>
		<path fill="#FFFFFF" d="M131.166,35.086c-0.42,1.443-0.771,1.896-1.945,1.896h-2.584c-0.621,0-0.906-0.151-0.906-0.923v-3.574
			h2.836c0.688,0,1.006,0.135,1.141,1.326h0.318v-3.188h-0.318c-0.084,0.973-0.369,1.258-0.974,1.258h-3.003v-4.127h3.541
			c0.604,0,1.023,0.302,1.24,1.729h0.303l-0.135-2.332h-8.053v0.318h0.369c1.123,0,1.342,0.402,1.342,1.342v7.08
			c0,0.998-0.234,1.369-1.547,1.375c-0.608-0.008-1.152-0.381-1.919-1.547l-1.976-2.999c2.047-0.704,2.198-2.265,2.198-2.718
			c0-1.393-0.989-2.147-1.678-2.482c-0.722-0.354-1.476-0.504-2.802-0.504c-1.426,0-2.853,0.066-4.262,0.185v0.302
			c1.375,0,1.628,0.318,1.628,1.157v6.745c0,1.443,0,1.879-1.611,1.879v0.303h4.799v-0.303c-1.679,0-1.795-0.385-1.795-1.846v-2.248
			h2.23c0.236,0.269,1.176,1.762,1.394,2.098c1.46,2.248,2.52,2.297,3.727,2.299l0,0h8.476l0.269-2.5H131.166z M117.907,32.703
			c-0.587,0.168-1.124,0.185-1.862,0.185h-0.671v-5.537c0.923-0.017,1.979-0.05,2.784,0.336c1.125,0.537,1.343,1.712,1.343,2.382
			C119.501,31.076,119.065,32.368,117.907,32.703z"/>
		<g>
			<path fill="#FFFFFF" d="M176.854,37.58c-1.246,0-2.334,0-3.834-2.308c-0.217-0.335-1.16-1.835-1.396-2.104h-2.238v2.258
				c0,1.464,0.117,1.852,1.801,1.852v0.303h-4.816v-0.303c1.617,0,1.617-0.438,1.617-1.886v-6.771c0-0.84-0.252-1.16-1.633-1.16
				v-0.303c1.414-0.119,2.846-0.187,4.276-0.187c1.331,0,2.089,0.151,2.812,0.506c0.69,0.337,1.685,1.095,1.685,2.492
				c0,0.454-0.151,2.02-2.206,2.728l2.055,3.115c0.774,1.178,1.291,1.381,1.846,1.464L176.854,37.58z M169.385,32.866h0.673
				c0.741,0,1.279-0.018,1.869-0.186c1.162-0.337,1.599-1.634,1.599-2.644c0-0.674-0.219-1.854-1.347-2.393
				c-0.808-0.386-1.868-0.352-2.794-0.336V32.866z"/>
			<path fill="#FFFFFF" d="M176.776,35.021c0.354,1.498,1.532,2.373,2.846,2.373c1.128,0,2.323-0.656,2.323-1.986
				c0-2.424-5.404-3.165-5.404-6.112c0-1.397,1.279-2.441,2.997-2.441c1.415,0,1.7,0.421,2.29,0.421
				c0.134,0,0.203-0.033,0.305-0.169h0.268l0.288,2.139H182.4c-0.473-1.212-1.549-1.986-2.711-1.986c-1.11,0-1.887,0.64-1.887,1.583
				c0,2.391,5.896,3.1,5.896,6.197c0,1.65-1.955,2.811-3.926,2.811c-0.925,0-2.104-0.455-2.34-0.455
				c-0.151,0-0.27,0.084-0.338,0.186h-0.285l-0.354-2.559H176.776z"/>
		</g>
		<path fill="#FFFFFF" d="M58.357,33.816h-0.319c-0.134-1.191-0.453-1.325-1.141-1.325h-2.835v3.573
			c0,0.772,0.285,0.923,0.906,0.923h2.583c1.175,0,1.527-0.453,1.946-1.896h0.303l-0.269,2.501h-8.909v-0.319h0.469
			c1.342,0,1.578-0.369,1.578-1.375v-7.081c0-0.939-0.219-1.342-1.343-1.342h-0.369v-0.319h8.053l0.135,2.333h-0.303
			c-0.218-1.426-0.637-1.729-1.242-1.729h-3.54v4.127h3.003c0.604,0,0.889-0.284,0.973-1.258h0.319V33.816z"/>
		<path fill="#FFFFFF" d="M71.066,37.709l-8.691-9.093v7.197c0,1.208,0.268,1.459,1.695,1.459v0.319h-3.893v-0.319h0.067
			c1.04,0,1.376-0.353,1.376-1.124v-8.255c-0.386-0.269-0.822-0.401-1.41-0.419v-0.319h2.635l7.902,8.239v-6.678
			c0-1.023-0.302-1.209-1.644-1.242v-0.319h3.926v0.319c-1.258,0-1.527,0.219-1.527,0.873v9.361H71.066z"/>
		<path fill="#FFFFFF" d="M79.382,36.049c0,0.904,0.303,1.224,1.326,1.224h0.621v0.319h-5.285v-0.319h0.62
			c1.023,0,1.326-0.319,1.326-1.224V27.76h-2.919c-0.671,0-0.973,0.387-1.225,1.861h-0.302l0.269-2.717h0.319
			c0.016,0.1,0.083,0.168,0.184,0.201c0.101,0.033,0.218,0.05,0.335,0.05h8.071c0.234,0,0.486-0.05,0.52-0.251h0.319l0.268,2.717
			h-0.301c-0.251-1.475-0.554-1.861-1.225-1.861h-2.92V36.049z"/>
		<path fill="#FFFFFF" d="M106.83,35.98c0,0.939,0.285,1.292,1.342,1.292h0.555v0.319h-4.648v-0.319h0.234
			c0.873,0,1.125-0.185,1.125-0.974v-7.936c0-0.62-0.201-0.889-0.789-0.889h-0.838v-0.319c0.469-0.017,1.292-0.066,2.115-0.101
			c0.822-0.033,1.627-0.051,2.08-0.051c3.506,0,4.313,1.678,4.313,2.971c0,1.963-1.577,3.204-4.061,3.204
			c-0.503,0-0.922-0.033-1.426-0.135V35.98z M106.83,32.727c0.219,0.05,0.588,0.134,0.906,0.134c1.828,0,3.003-1.241,3.003-2.936
			c0-1.309-0.521-2.602-2.751-2.602c-0.387,0-0.756,0-1.158,0.067V32.727z"/>
		<path fill="#FFFFFF" d="M142.766,37.709l-8.691-9.093v7.197c0,1.208,0.269,1.459,1.694,1.459v0.319h-3.892v-0.319h0.066
			c1.041,0,1.376-0.353,1.376-1.124v-8.255c-0.386-0.269-0.822-0.401-1.409-0.419v-0.319h2.634l7.902,8.239v-6.678
			c0-1.023-0.302-1.209-1.644-1.242v-0.319h3.926v0.319c-1.259,0-1.526,0.219-1.526,0.873v9.361H142.766z"/>
		<path fill="#FFFFFF" d="M151.927,33.816h-0.319c-0.135-1.191-0.453-1.325-1.141-1.325h-2.836v3.573
			c0,0.772,0.285,0.923,0.906,0.923h2.584c1.174,0,1.526-0.453,1.945-1.896h0.303l-0.269,2.501h-8.909v-0.319h0.471
			c1.342,0,1.576-0.369,1.576-1.375v-7.081c0-0.939-0.219-1.342-1.342-1.342h-0.369v-0.319h8.054l0.134,2.333h-0.303
			c-0.217-1.426-0.637-1.729-1.24-1.729h-3.541v4.127h3.004c0.604,0,0.889-0.284,0.973-1.258h0.319V33.816z"/>
		<path fill="#FFFFFF" d="M166.353,27.155v0.319c-1.126,0.018-1.527,0.469-1.527,1.543v4.53c0,2.081-1.326,4.313-4.968,4.313
			c-3.203,0-4.848-1.829-4.848-4.229v-4.899c0-1.074-0.303-1.24-1.442-1.258v-0.319h4.312v0.319h-0.15
			c-0.924,0-1.326,0.252-1.326,1.225v4.664c0,2.266,1.326,3.624,3.824,3.624c1.897,0,3.826-0.788,3.826-3.641v-3.909
			c0-1.61-0.251-1.896-1.645-1.963v-0.319H166.353z"/>
		<path fill="#FFFFFF" d="M186.414,32.608v3.188c0,1.091,0.218,1.477,1.342,1.477h0.051v0.319h-4.212v-0.319h0.101
			c0.99,0,1.325-0.269,1.325-1.224v-7.383c0-0.873-0.285-1.124-1.208-1.191v-0.319h3.994v0.319c-1.192,0-1.393,0.318-1.393,1.611
			v2.918h6.576v-3.305c0-0.89-0.285-1.225-1.326-1.225h-0.318v-0.319h4.313v0.319c-1.008,0.033-1.275,0.335-1.275,1.376v6.963
			c0,1.19,0.336,1.459,1.342,1.459h0.168v0.319h-4.748v-0.319h0.52c1.092,0,1.326-0.386,1.326-1.259v-3.405H186.414z"/>
		<path fill="#FFFFFF" d="M200.651,37.592h-4.075v-0.319c1.039-0.05,1.257-0.319,1.257-1.442v-7.148
			c0-0.904-0.317-1.156-1.257-1.207v-0.319h4.075v0.319c-1.055,0-1.425,0.234-1.425,1.359v7.113c0,0.99,0.269,1.325,1.425,1.325
			V37.592z"/>
		<path fill="#FFFFFF" d="M204.344,35.98c0,0.939,0.285,1.292,1.342,1.292h0.555v0.319h-4.647v-0.319h0.235
			c0.871,0,1.124-0.185,1.124-0.974v-7.936c0-0.62-0.202-0.889-0.79-0.889h-0.839v-0.319c0.471-0.017,1.293-0.066,2.114-0.101
			c0.823-0.033,1.628-0.051,2.081-0.051c3.507,0,4.312,1.678,4.312,2.971c0,1.963-1.577,3.204-4.061,3.204
			c-0.504,0-0.923-0.033-1.426-0.135V35.98z M204.344,32.727c0.218,0.05,0.588,0.134,0.906,0.134c1.829,0,3.003-1.241,3.003-2.936
			c0-1.309-0.521-2.602-2.752-2.602c-0.386,0-0.755,0-1.157,0.067V32.727z"/>
	</g>
</g>
</svg>
