<?xml version="1.0" encoding="utf-8"?>
<!-- Generator: Adobe Illustrator 16.0.3, SVG Export Plug-In . SVG Version: 6.00 Build 0)  -->
<!DOCTYPE svg PUBLIC "-//W3C//DTD SVG 1.1//EN" "http://www.w3.org/Graphics/SVG/1.1/DTD/svg11.dtd">
<svg version="1.1" id="Layer_1" xmlns="http://www.w3.org/2000/svg" xmlns:xlink="http://www.w3.org/1999/xlink" x="0px" y="0px"
	 width="210px" height="40px" viewBox="0 0 210 40" enable-background="new 0 0 210 40" xml:space="preserve">
<g>
	<g>
		<g>
			<g>
				<ellipse fill="#FFFFFF" cx="20.3" cy="19.825" rx="14.063" ry="14.05"/>
			</g>
			<path fill="#FFD420" d="M34.361,19.512c0,0.063-0.25,0.272-0.518,0.434c-0.006,0.003-0.012,0.008-0.019,0.012
				c-0.364,0.197-0.877,0.381-1.517,0.549c-0.657,0.174-1.467,0.329-2.356,0.466c-0.893,0.137-1.884,0.24-2.956,0.333
				c0-0.001,0,0.002,0,0c-1.367,0.123-2.228,0.176-3.319,0.229c-1.159,0.048-2.364,0.073-3.584,0.071
				c0,0.156,0.001,0.312,0.001,0.466c0.001,1.099,0.004,2.146,0.01,3.131c0.027,5.393,0.035,5.391,0.197,8.671
				c7.768,0,14.063-6.292,14.063-14.05C34.363,19.825,34.361,19.623,34.361,19.512z"/>
			<polygon fill="#231F20" points="25.534,32.422 25.534,32.42 25.534,32.422 			"/>
			<g>
				<path fill="#231F20" d="M20.093,22.073c0.001,1.099,0.004,2.146,0.01,3.131c2.254,2.132,2.254,2.132,3.192,3.072
					c0.249-1.785,0.387-3.915,0.385-6.274c-0.001-0.156-0.002-0.312-0.003-0.466c-1.424,0.057-2.364,0.073-3.584,0.071
					C20.092,21.763,20.093,21.918,20.093,22.073z"/>
				<path fill="#231F20" d="M25.252,30.676c-0.493-0.801-0.942-1.322-1.96-2.392c-0.478,3.421-1.331,5.528-2.38,5.573
					c0.088-0.005,0.226-0.013,0.314-0.018c0.112-0.008,0.248-0.02,0.36-0.027C23.042,33.684,24.293,32.566,25.252,30.676z"/>
				<path fill="#231F20" d="M26.828,24.941c0.001-0.022-0.81,4.219-1.576,5.735c0.44,0.848,0.459,1.187,0.282,1.744
					c1.366-1.035,2.491-2.598,3.267-4.53C28.305,26.876,27.964,26.338,26.828,24.941z"/>
				<path fill="#231F20" d="M22.802,33.656c0.306-0.053,0.289-0.061,0.855-0.188l0.337-0.099c1.039-0.321,1.221-0.484,1.544-0.964
					c-0.927,0.697-1.918,1.125-3.025,1.297L22.802,33.656z"/>
				<path fill="#231F20" d="M29.052,30.208c2.028-2.295,3.266-5.537,3.261-9.234c0-0.156-0.002-0.309-0.005-0.466
					c-0.657,0.174-1.467,0.329-2.356,0.466c0.012,0.154,0.017,0.314,0.017,0.47c0.005,2.404-0.404,4.59-1.148,6.438
					C29.238,28.952,29.245,29.402,29.052,30.208z"/>
				<path fill="#231F20" d="M26.996,21.307c-1.367,0.123-2.228,0.176-3.319,0.229c1.927,2.001,2.337,2.472,3.152,3.406
					c0.115-0.994,0.174-2.049,0.174-3.152C27.001,21.631,26.999,21.466,26.996,21.307z"/>
			</g>
			<path fill="#231F20" d="M17.216,6.5C18,6.183,18.753,5.854,20.271,5.769l0,0C19.243,5.862,18.171,6.15,17.216,6.5"/>
			<g>
				<path fill="#E03A3E" d="M29.716,20.973c-0.733-0.098-1.346-1.334-1.022-2.592c-1.03,0.71-2.19-0.751-2.02-2.103
					c0.089-0.716,0.558-1.352,1.378-1.058c-0.333-1.143-0.751-2.225-1.238-3.221c-0.726,0.092-1.523,0.169-2.37,0.228
					c0.752,1.136,0.014,2.191-1.035,2.022c-0.76-0.122-1.469-0.919-1.271-1.867c-0.617,0.428-1.881,0.259-2-1.087
					c-0.032,2.856-0.05,6.512-0.046,10.312c3.736,0.038,8.116-0.361,9.859-0.633c0,0,0,0.006,0,0
					C29.878,20.979,29.785,20.98,29.716,20.973z"/>
			</g>
			<g>
				<path fill="#E03A3E" d="M11.213,23.793c1.046-0.404,2.36,1.403,1.899,2.608c-0.211,0.557-0.761,0.712-1.337,0.377
					c0.312,1.054,0.715,2.017,1.198,2.869c0.738,0.103,1.569,0.191,2.478,0.258c-0.729-0.896-0.144-1.63,0.829-1.582
					c0.835,0.042,1.943,0.738,1.705,1.687c0.751-0.34,2.023-0.063,2.177,0.916c-0.036-2.107-0.061-5.201-0.067-8.853
					c0-0.159-0.002-0.306-0.002-0.466c-1.187,0.003-2.389-0.042-3.586-0.09c-2.543-0.104-4.271-0.252-6.4-0.614c0,0.007,0-0.007,0,0
					C11.196,21.272,11.496,22.893,11.213,23.793z"/>
			</g>
			<path fill="#E03A3E" d="M26.962,10.847L26.962,10.847L26.962,10.847c0.003-0.001,0.008-0.001,0.011-0.001h-0.001
				c0,0,0.004-0.001,0.007-0.003c0.137-0.021,0.265-0.044,0.388-0.066C28.174,10.629,30,10.192,30,9.661
				c0,0,0.715,0.717,1.242,1.714c0.062,0.108,0.103,0.208,0.159,0.364c0.062,0.178,0.102,0.382,0.095,0.479
				c-0.023,0.303-0.217,0.308-0.418,0.219c-0.021-0.007-0.041-0.015-0.065-0.026c-0.721-0.325-0.959-0.988-1.099-1.26
				c-0.367,0.114-0.975,0.38-1.479,0.478c-0.06,0.012-0.167,0.036-0.228,0.048c0.597,0.98,1.163,2.149,1.57,3.28
				c0.708-0.727,1.817,0.623,1.87,1.925c0.032,0.766-0.313,1.447-1.013,1.201c0.56,1.037,0.382,2.559-0.682,2.89
				c-0.178-3.409-0.756-6.434-3.004-10.12l0,0l0,0"/>
			<path fill="#E03A3E" d="M26.947,10.854L26.947,10.854L26.947,10.854L26.947,10.854L26.947,10.854
				c-1.791-2.734-3.204-3.729-5.021-4.445c-0.363-0.143-1.592-0.624-1.656-0.64l0.006,0.012l0,0
				c0.321,0.467,0.962,0.745,1.102,0.787c-0.04,0.171-0.009,0.509,0.582,0.938c0.092,0.066,0.182,0.119,0.268,0.16
				c0.914,0.478,1.114,0.106,1.158-0.042c0.005-0.005,0.011-0.008,0.016-0.013c0.28,0.206,0.823,0.644,1.422,1.321
				c0.346,0.415,0.672,0.777,0.918,1.141c-0.565,0.071-1.314,0.138-2.055,0.189c-0.042-0.897-0.689-1.344-1.096-1.495
				c-0.891-0.331-1.183,0.717-0.798,1.453c-0.704-0.379-1.539-0.041-1.656,1.072C22.922,11.276,24.832,11.153,26.947,10.854
				L26.947,10.854L26.947,10.854"/>
			<path fill="#E03A3E" d="M27.122,8.306c-0.007-0.012-0.015-0.06-0.005-0.098c0.009-0.037,0.04-0.067,0.04-0.067
				s0.015-0.035,0.068-0.066c0.143-0.082,0.568-0.124,1.746,0.688c-2.438-1.917-5.064-2.703-7.292-2.922
				c-0.315-0.035-0.897-0.06-0.897-0.06c0.709,0.063,1.19,0.251,1.303,0.291c0.091,0.03,0.163,0.079,0.206,0.117
				c0.004-0.001,0.008-0.001,0.008-0.001c0.14,0.016,0.303,0.045,0.501,0.101c0.219,0.063,0.581,0.196,0.903,0.35
				c0.325,0.152,0.804,0.495,0.807,0.688c-0.074,0.044-0.097,0.057-0.315,0c0.832,0.591,2.025,1.707,2.729,2.53
				c0.485-0.092,1.206-0.195,1.541-0.309C28.44,9.572,27.362,8.764,27.122,8.306z"/>
			<path fill="#E03A3E" d="M12.827,30.425c-1.208-0.218-1.901-0.398-2.363-0.634c-0.077-0.041-0.101-0.041-0.118-0.044
				c-0.011-0.003-0.688-0.696-1.282-1.465c-0.432-0.56-0.796-1.194-0.836-1.251c0.004,0.005,0.098,0,0.156,0.019
				c0.631,0.209,1.619,1.932,1.63,1.951c0.391,0.145,0.899,0.281,1.514,0.407c-0.578-0.87-1.062-1.846-1.434-2.912
				c-0.877,0.443-1.996-1.873-1.642-2.848c0.072-0.201,0.304-0.616,0.899-0.167c-0.448-1.031-0.326-2.58,0.755-2.578
				C10.13,24.319,10.599,27.263,12.827,30.425"/>
			<path fill="#E03A3E" d="M20.141,31.122c-0.122,0.489-0.805,0.954-1.772,0.559c0.453,0.596,0.06,1.111-0.733,0.967
				c-0.619-0.111-1.353-0.608-1.41-1.105c-0.764-0.059-1.462-0.131-2.083-0.217c0.591,0.684,1.248,1.245,1.958,1.659
				c0.085-0.035,0.216-0.027,0.637,0.122c0.54,0.189,1.055,0.442,1.592,0.634c0,0-0.114-0.019-0.113-0.019
				c-0.41-0.062-0.509-0.085-0.738-0.131c-1.034-0.203-2.84-0.792-4.651-3.166h-0.001h0.001l0,0
				c2.183,0.337,4.308,0.484,7.335,0.502C20.156,30.986,20.154,31.066,20.141,31.122"/>
			<path fill="#FFD420" d="M20.271,5.769c-7.541,0-13.887,6.149-14.032,13.786l0.005,0.013c0.006,0.022,0.076,0.164,0.371,0.348l0,0
				l0,0c0.297,0.187,0.735,0.384,1.313,0.531c0.715,0.186,1.465,0.335,2.165,0.454l0.014,0.002c2.128,0.362,3.857,0.509,6.4,0.614
				c1.197,0.048,2.399,0.093,3.586,0.09c-0.001-0.716-0.006-4.798,0.027-8.739c0.003-0.509,0.01-1.04,0.018-1.574
				C20.167,8.727,20.222,6.113,20.271,5.769L20.271,5.769z"/>
			<path fill="#231F20" d="M27.008,32.178c-0.795,0.446-0.95,0.457-2.018,0.897c-0.297,0.122-0.575,0.193-0.882,0.281
				c1.896-0.51,4.491-2.633,4.947-3.15c-0.231,0.512-0.405,0.85-0.964,1.302C27.937,31.631,27.266,32.033,27.008,32.178z"/>
			<path fill="#231F20" d="M7.928,20.447c-0.585-0.142-1.015-0.344-1.313-0.531c0.156-5.084,2.984-9.594,7.102-12.065
				c-0.973,0.863-1.406,1.379-1.898,2.546C9.508,13.048,8.032,16.615,7.928,20.447"/>
			<path fill="#231F20" d="M13.73,7.843c1.033-0.744,1.619-1.285,3.253-1.676c1.147-0.276,2.152-0.396,3.287-0.397l0,0
				C17.901,5.87,15.673,6.681,13.73,7.843"/>
			<path fill="#231F20" d="M12.979,21.289c-1.027-0.099-1.999-0.234-2.873-0.386c0.058-2.546,0.591-4.989,1.514-7.153
				c0.357,1.421,0.661,2.185,1.665,3.87C13.104,18.809,12.999,20.039,12.979,21.289"/>
			<path fill="#231F20" d="M20.138,11.295c-0.018,1.547-0.026,3.137-0.031,4.366c-0.008,1.216-0.013,2.097-0.013,2.268
				c-1.383-1.449-2.123-2.264-3.135-3.547c0.679-4.369,1.907-7.821,3.312-8.612l0,0l0,0C20.22,6.184,20.167,8.665,20.138,11.295z"/>
			<g>
				<path fill="#231F20" d="M15.202,11.128c-0.885,1.862-1.545,4.092-1.909,6.489c0.859,1.276,1.391,2.023,3.104,3.895
					c0.02-2.512,0.223-4.949,0.564-7.14C15.932,12.97,15.605,12.303,15.202,11.128z"/>
			</g>
			<path fill="#231F20" stroke="#231F20" stroke-width="0" stroke-linecap="round" stroke-linejoin="round" d="M33.825,19.958
				c0.003,0.154,0.008,0.31,0.008,0.465c0.008,4.967-2.419,9.101-6.221,11.389l-0.1,0.075c1.786-1.096,4.042-2.947,5.479-6.013
				c1.539-3.021,1.371-6.362,1.371-6.362C34.284,19.648,34.058,19.822,33.825,19.958z"/>
			<g>
				<path fill="#231F20" d="M17.216,6.5c-2.051,0.803-3.898,2.179-5.394,3.895c-0.409,1.278-0.408,1.991-0.203,3.355
					c0.912-2.13,2.187-3.976,3.694-5.356C15.778,7.591,16.068,7.111,17.216,6.5z"/>
			</g>
			<path fill="#231F20" d="M15.196,11.136c-0.253-1.147-0.273-1.73,0.112-2.73c1.468-1.351,3.161-2.354,4.963-2.637
				C18.297,6.297,16.508,8.366,15.196,11.136"/>
			<path fill="#FFFFFF" d="M3.346,9.406l0.081,0.039C3.29,9.731,3.354,9.89,3.626,10.024l1.145,0.568
				c0.526,0.262,0.925,0.875,0.467,1.795c-0.401,0.809-1.069,0.997-1.677,0.697l-1.239-0.616c-0.271-0.134-0.352-0.078-0.499,0.207
				l-0.081-0.039l0.541-1.09l0.081,0.04l-0.019,0.038c-0.116,0.233-0.104,0.366,0.143,0.488l1.18,0.585
				c0.573,0.284,1.083,0.119,1.397-0.513c0.237-0.479,0.28-1.065-0.441-1.423l-0.989-0.491c-0.408-0.201-0.511-0.174-0.703,0.17
				l-0.081-0.039L3.346,9.406z"/>
			<path fill="#FFFFFF" d="M8.25,8.002L4.705,8.223l1.554,1.308C6.52,9.751,6.623,9.738,6.882,9.43l0.07,0.059L6.244,10.33
				l-0.068-0.059l0.013-0.015c0.188-0.224,0.172-0.36,0.006-0.5L4.413,8.255C4.286,8.29,4.177,8.36,4.064,8.482L3.997,8.423
				l0.479-0.566l3.216-0.208L6.25,6.435C6.029,6.249,5.935,6.28,5.683,6.564L5.615,6.506L6.329,5.66l0.069,0.058
				c-0.229,0.271-0.23,0.369-0.089,0.487L8.33,7.907L8.25,8.002z"/>
			<path fill="#FFFFFF" d="M9.975,6.478L9.089,7.212L9.031,7.143c0.216-0.197,0.216-0.296,0.013-0.54l-1.29-1.551
				C7.591,4.855,7.477,4.859,7.264,5.017L7.207,4.948l0.885-0.735l0.058,0.069C7.92,4.472,7.882,4.589,8.085,4.834l1.283,1.544
				c0.178,0.214,0.297,0.238,0.55,0.029L9.975,6.478z"/>
			<path fill="#FFFFFF" d="M11.719,5.394L9.536,3.705C9.284,3.505,9.199,3.473,8.949,3.619L8.903,3.542l1.125-0.659l0.046,0.077
				C9.702,3.189,9.663,3.328,9.85,3.469l1.809,1.399l-0.344-2.064c-0.022-0.142-0.046-0.238-0.079-0.294
				c-0.071-0.123-0.202-0.113-0.48,0.051L10.71,2.483l0.948-0.556l0.046,0.078c-0.213,0.125-0.266,0.287-0.215,0.597l0.435,2.671
				L11.719,5.394z"/>
			<path fill="#FFFFFF" d="M15.199,2.617l-0.084,0.028c-0.146-0.305-0.244-0.312-0.428-0.248l-0.757,0.26l0.331,0.953
				c0.07,0.206,0.161,0.22,0.326,0.163l0.69-0.237c0.313-0.107,0.366-0.261,0.345-0.685l0.081-0.026l0.158,0.691l-2.378,0.819
				l-0.03-0.085l0.125-0.044c0.359-0.122,0.387-0.242,0.294-0.51l-0.653-1.889c-0.084-0.25-0.181-0.338-0.481-0.235L12.64,1.605
				l-0.03-0.085l2.15-0.742l0.251,0.61L14.93,1.417c-0.189-0.359-0.329-0.402-0.49-0.347l-0.944,0.327l0.38,1.101l0.801-0.276
				c0.161-0.056,0.211-0.158,0.145-0.426l0.084-0.028L15.199,2.617z"/>
			<path fill="#FFFFFF" d="M16.996,0.329c0.084-0.02,0.145-0.027,0.233-0.037c0.725-0.086,0.963,0.229,1.015,0.667
				c0.068,0.563-0.25,0.826-0.772,0.886c-0.109,0.014-0.178,0.027-0.292,0.026L16.996,0.329z M17.19,1.959
				c0.077-0.004,0.137-0.006,0.241-0.02c0.127-0.015,0.202-0.027,0.319-0.048c0.121,0.063,0.303,0.18,0.533,0.361l0.348,0.274
				c0.469,0.369,0.702,0.522,1.52,0.387l-0.008-0.085c-0.366,0.021-0.674-0.12-0.984-0.364l-0.417-0.328
				c-0.247-0.195-0.402-0.309-0.593-0.424c0.372-0.159,0.576-0.484,0.535-0.836c-0.057-0.479-0.491-0.79-1.361-0.685
				c-0.306,0.035-0.399,0.051-0.591,0.084c-0.191,0.032-0.476,0.084-0.588,0.098l0.01,0.09l0.104-0.013
				c0.272-0.032,0.362,0.043,0.398,0.333l0.235,1.98c0.037,0.313-0.052,0.401-0.331,0.434l-0.08,0.01l0.011,0.089l1.332-0.158
				L17.811,3.05l-0.108,0.012c-0.263,0.032-0.383-0.025-0.418-0.308L17.19,1.959z"/>
			<path fill="#FFFFFF" d="M20.83,2.232c0.067,0.427,0.378,0.699,0.747,0.727c0.316,0.024,0.666-0.133,0.695-0.505
				c0.052-0.679-1.446-1.006-1.382-1.832c0.031-0.391,0.412-0.656,0.894-0.619c0.397,0.031,0.468,0.156,0.632,0.168
				c0.038,0.003,0.058-0.004,0.089-0.041l0.074,0.007l0.035,0.605l-0.081-0.008c-0.106-0.349-0.391-0.589-0.717-0.615
				c-0.312-0.024-0.543,0.139-0.563,0.403c-0.052,0.668,1.449,0.967,1.381,1.836c-0.035,0.461-0.473,0.774-1.027,0.73
				c-0.259-0.021-0.58-0.174-0.645-0.179c-0.043-0.003-0.078,0.019-0.101,0.045L20.783,2.95l-0.042-0.725L20.83,2.232z"/>
			<path fill="#FFFFFF" d="M24.472,3.473l-1.125-0.244l0.02-0.089c0.29,0.05,0.367-0.013,0.433-0.322l0.43-1.97
				c0.055-0.25-0.018-0.337-0.274-0.408l0.019-0.089L25.1,0.597l-0.02,0.087c-0.291-0.062-0.408-0.02-0.476,0.29l-0.426,1.96
				c-0.06,0.273-0.006,0.382,0.313,0.451L24.472,3.473z"/>
			<path fill="#FFFFFF" d="M26.86,3.813c-0.095,0.238-0.048,0.353,0.221,0.459l0.162,0.065l-0.033,0.083L25.822,3.87l0.033-0.083
				l0.164,0.063c0.268,0.107,0.38,0.055,0.475-0.182l0.863-2.174l-0.767-0.303c-0.177-0.069-0.297,0-0.516,0.362l-0.08-0.032
				l0.354-0.685l0.084,0.033c-0.006,0.028,0.004,0.054,0.028,0.072c0.023,0.019,0.051,0.036,0.083,0.049l2.118,0.838
				c0.062,0.023,0.133,0.037,0.163-0.011l0.084,0.031l-0.213,0.74l-0.079-0.031c0.088-0.413,0.049-0.544-0.128-0.616L27.724,1.64
				L26.86,3.813z"/>
			<path fill="#FFFFFF" d="M31.683,4.121c0.271-0.132,0.24-0.248-0.012-0.416l0.051-0.076l0.89,0.594l-0.051,0.075
				c-0.281-0.159-0.465-0.13-0.699-0.019l-1.394,0.67l-0.394,0.59c-0.141,0.208-0.121,0.34,0.12,0.5l0.05,0.035l-0.05,0.074
				l-1.082-0.723l0.048-0.075l0.077,0.051c0.244,0.163,0.375,0.12,0.504-0.073l0.371-0.555l0.031-1.563
				c0.01-0.431-0.044-0.548-0.294-0.726l0.05-0.074l1.047,0.699l-0.05,0.074c-0.308-0.204-0.376-0.142-0.379,0.117l-0.02,1.393
				L31.683,4.121z"/>
			<path fill="#FFFFFF" d="M35.596,9.758c-0.534,0.407-1.3,0.527-1.769-0.086c-0.461-0.605-0.329-1.463,0.374-2
				c0.453-0.343,1.271-0.552,1.776,0.111C36.453,8.405,36.298,9.225,35.596,9.758z M35.992,10.018
				C36.669,9.5,36.69,8.522,36.146,7.81c-0.611-0.802-1.583-0.973-2.333-0.401c-0.703,0.536-0.704,1.518-0.142,2.257
				C34.229,10.395,35.229,10.597,35.992,10.018z"/>
			<path fill="#FFFFFF" d="M36.985,12.975l-0.035-0.072c0.244-0.127,0.277-0.253,0.179-0.459l-0.378-0.79L35.817,12.1
				c-0.241,0.114-0.306,0.21-0.151,0.53l-0.083,0.038l-0.496-1.038l0.081-0.038c0.143,0.256,0.222,0.277,0.568,0.111l1.675-0.798
				c0.275-0.131,0.389-0.213,0.25-0.512l0.082-0.038l0.914,1.914l-0.504,0.241l-0.034-0.073c0.245-0.122,0.307-0.257,0.181-0.521
				l-0.388-0.812l-1.005,0.479l0.404,0.846c0.077,0.158,0.203,0.192,0.393,0.117l0.035,0.072L36.985,12.975z"/>
			<path fill="#FFFFFF" d="M3.824,31.5l1.704-3.142l-0.006-0.01l-2.301,1.467c-0.26,0.167-0.178,0.391-0.029,0.619L3.099,30.5
				l-0.741-1.019l0.095-0.066c0.259,0.357,0.369,0.343,0.832,0.045l1.992-1.264c0.338-0.215,0.419-0.288,0.218-0.606l0.087-0.064
				l0.538,0.74l-1.612,2.969L7.83,30.62l0.521,0.72l-0.087,0.065c-0.194-0.226-0.267-0.316-0.427-0.185l-2.105,1.764
				c-0.429,0.357-0.4,0.396-0.141,0.752l-0.094,0.069l-0.913-1.26l0.093-0.066c0.167,0.23,0.395,0.41,0.639,0.202l2.091-1.735
				l-0.005-0.009l-3.497,0.675L3.824,31.5z"/>
			<path fill="#FFFFFF" d="M9.821,34.772l-0.844-0.621l1.25-0.831L9.821,34.772z M9.746,35.046l-0.327,1.128
				c-0.016,0.063-0.035,0.162-0.092,0.238c-0.102,0.138-0.226,0.092-0.502-0.113l-0.127-0.092l-0.068,0.091l1.341,0.986l0.067-0.093
				c-0.242-0.178-0.31-0.302-0.216-0.632l0.971-3.453l-0.424-0.312l-0.035,0.14l-2.67,1.768c-0.466,0.311-0.561,0.324-0.88,0.095
				l-0.069,0.095l1.126,0.825l0.068-0.091l-0.078-0.057c-0.267-0.196-0.358-0.339-0.262-0.471c0.051-0.068,0.222-0.168,0.325-0.235
				l0.845-0.557L9.746,35.046z"/>
			<path fill="#FFFFFF" d="M13.629,34.961c0.106,0.026,0.18,0.052,0.289,0.089c0.878,0.313,0.973,0.807,0.784,1.338
				c-0.243,0.684-0.754,0.803-1.387,0.58c-0.132-0.045-0.219-0.071-0.35-0.136L13.629,34.961z M12.926,36.94
				c0.09,0.037,0.161,0.069,0.288,0.113c0.154,0.056,0.247,0.082,0.392,0.126c0.104,0.141,0.245,0.375,0.407,0.716l0.243,0.51
				c0.328,0.685,0.507,0.994,1.522,1.304l0.036-0.104c-0.429-0.184-0.703-0.518-0.919-0.973l-0.292-0.611
				c-0.173-0.361-0.287-0.583-0.439-0.824c0.516,0.029,0.935-0.228,1.086-0.653c0.207-0.583-0.113-1.184-1.169-1.558
				c-0.37-0.131-0.487-0.166-0.724-0.237c-0.239-0.072-0.595-0.172-0.731-0.221l-0.04,0.109l0.125,0.044
				c0.332,0.118,0.393,0.254,0.266,0.607l-0.852,2.4c-0.136,0.381-0.288,0.43-0.625,0.312l-0.096-0.035l-0.039,0.109l1.615,0.571
				l0.038-0.106l-0.132-0.047c-0.319-0.114-0.425-0.249-0.304-0.59L12.926,36.94z"/>
			<path fill="#FFFFFF" d="M19.793,36.813c0.223-0.316,0.116-0.429-0.27-0.46l0.009-0.115l1.365,0.116l-0.011,0.113
				c-0.412-0.006-0.602,0.145-0.794,0.412l-1.146,1.61l-0.078,0.902c-0.028,0.32,0.077,0.457,0.446,0.487l0.078,0.007L19.381,40
				l-1.658-0.14l0.01-0.115l0.113,0.011c0.376,0.03,0.496-0.098,0.521-0.393l0.072-0.85l-0.93-1.768
				c-0.256-0.488-0.388-0.584-0.779-0.631l0.01-0.114l1.605,0.139l-0.011,0.113c-0.469-0.041-0.509,0.073-0.351,0.365l0.837,1.571
				L19.793,36.813z"/>
			<path fill="#FFFFFF" d="M24.824,39.528l-2.668,0.451l-0.018-0.113l0.196-0.032c0.275-0.048,0.361-0.155,0.309-0.458l-0.446-2.642
				c-0.054-0.315-0.172-0.431-0.548-0.367l-0.083,0.015l-0.019-0.114l1.761-0.298l0.019,0.113l-0.22,0.038
				c-0.389,0.065-0.483,0.125-0.42,0.495l0.464,2.75c0.027,0.158,0.104,0.21,0.277,0.18l0.876-0.148
				c0.352-0.06,0.437-0.214,0.725-0.797l0.107-0.019L24.824,39.528z"/>
			<path fill="#FFFFFF" d="M27.712,36.506l-0.965,0.405l-0.069-1.498L27.712,36.506z M27.911,36.713l0.799,0.859
				c0.046,0.047,0.121,0.115,0.158,0.204c0.064,0.155-0.037,0.238-0.356,0.372l-0.146,0.061l0.044,0.104l1.536-0.639l-0.043-0.107
				c-0.28,0.117-0.42,0.109-0.655-0.138l-2.463-2.61l-0.486,0.203l0.102,0.101l0.144,3.197c0.023,0.561-0.012,0.649-0.374,0.806
				l0.044,0.104l1.291-0.539l-0.044-0.105l-0.09,0.038c-0.306,0.126-0.475,0.132-0.539-0.018c-0.032-0.077-0.03-0.277-0.035-0.399
				l-0.042-1.011L27.911,36.713z"/>
			<path fill="#FFFFFF" d="M34.458,34.371l-4.506-0.533l1.655,2c0.276,0.336,0.409,0.345,0.806,0.018l0.072,0.088l-1.083,0.893
				l-0.072-0.088l0.018-0.016c0.289-0.239,0.302-0.414,0.124-0.628l-1.896-2.292c-0.17,0.013-0.323,0.075-0.489,0.206l-0.075-0.088
				l0.733-0.606l4.091,0.475l-1.535-1.856c-0.234-0.284-0.361-0.265-0.743,0.034l-0.073-0.089l1.092-0.901l0.073,0.088
				c-0.351,0.29-0.374,0.412-0.224,0.594l2.151,2.602L34.458,34.371z"/>
			<path fill="#FFFFFF" d="M33.573,29.713c0.035-0.065,0.108-0.21,0.244-0.419c0.459-0.71,0.87-0.956,1.255-1.038
				c0.494-0.106,0.98,0.055,1.357,0.299c0.523,0.337,0.764,0.825,0.824,1.13c0.112,0.518,0.024,0.866-0.416,1.545
				c-0.259,0.402-0.341,0.373-0.549,0.236L33.573,29.713z M35.925,31.831c0.294,0.19,0.289,0.366,0.111,0.638l-0.056,0.088
				l0.097,0.062l1.051-1.626c0.831-1.284,0.295-2.473-0.471-2.969c-0.839-0.54-1.906-0.386-2.773,0.954
				c-0.171,0.266-0.366,0.579-0.537,0.864c-0.17,0.287-0.321,0.541-0.432,0.737l0.097,0.063l0.064-0.104
				c0.195-0.299,0.332-0.333,0.662-0.12L35.925,31.831z"/>
			<path fill="#FFFFFF" d="M0.89,18.645v2.59c0,0.136,0.028,0.171,0.166,0.171h0.251v0.083H0.183v-0.083h0.242
				c0.144,0,0.17-0.041,0.17-0.174v-2.229c-0.143,0.125-0.395,0.291-0.56,0.367L0,19.305c0.26-0.175,0.63-0.509,0.736-0.661H0.89z"
				/>
			<path fill="#FFFFFF" d="M3.479,20.854c0,0.35-0.257,0.618-0.593,0.618c-0.342,0-0.592-0.281-0.592-0.661
				c0-0.291,0.153-0.514,0.458-0.679C3.272,20.368,3.479,20.556,3.479,20.854z M3.673,19.289c0-0.356-0.358-0.644-0.807-0.644
				c-0.442,0-0.812,0.331-0.812,0.724c0,0.304,0.192,0.53,0.61,0.718c-0.438,0.174-0.65,0.418-0.65,0.732
				c0,0.406,0.382,0.732,0.867,0.732c0.499,0,0.884-0.357,0.884-0.821c0-0.344-0.202-0.58-0.673-0.79
				C3.485,19.782,3.673,19.574,3.673,19.289z M3.404,19.284c0,0.254-0.125,0.459-0.375,0.615c-0.577-0.244-0.711-0.422-0.711-0.668
				c0-0.282,0.239-0.502,0.546-0.502C3.177,18.728,3.404,18.962,3.404,19.284z"/>
			<path fill="#FFFFFF" d="M36.902,18.965h1.058c0.08,0,0.107-0.018,0.13-0.058h0.085l-0.05,0.345h-1.13l-0.034,0.801
				c0.138-0.076,0.299-0.111,0.481-0.111c0.5,0,0.916,0.417,0.916,0.92c0,0.542-0.45,0.952-1.048,0.952
				c-0.357,0-0.652-0.125-0.652-0.281c0-0.075,0.066-0.137,0.146-0.137c0.241,0,0.327,0.313,0.607,0.313
				c0.33,0,0.613-0.345,0.613-0.752c0-0.412-0.283-0.719-0.667-0.719c-0.163,0-0.338,0.065-0.472,0.18l-0.045-0.032L36.902,18.965z"
				/>
			<path fill="#FFFFFF" d="M40.306,20.953c0,0.507-0.214,0.789-0.527,0.789c-0.283,0-0.61-0.246-0.61-0.998
				c0-0.152,0.009-0.215,0.022-0.278c0.274-0.219,0.475-0.268,0.591-0.268C40.083,20.197,40.306,20.475,40.306,20.953z
				 M40.333,18.907c-0.936,0.263-1.499,0.919-1.499,1.746c0,0.686,0.384,1.162,0.937,1.162c0.477,0,0.871-0.41,0.871-0.901
				c0-0.457-0.354-0.823-0.792-0.823c-0.219,0-0.394,0.07-0.635,0.258c0.098-0.653,0.469-1.09,1.166-1.375L40.333,18.907z"/>
		</g>
	</g>
	<path fill="#FFFFFF" d="M55.453,21.933h-4.081v-0.318c1.041-0.051,1.259-0.319,1.259-1.443v-7.148c0-0.906-0.319-1.158-1.259-1.208
		v-0.319h4.081v0.319c-1.058,0-1.427,0.234-1.427,1.358v7.115c0,0.99,0.269,1.326,1.427,1.326V21.933z"/>
	<path fill="#FFFFFF" d="M67.61,22.05l-8.698-9.094v7.199c0,1.207,0.268,1.459,1.696,1.459v0.318h-3.896v-0.318h0.067
		c1.041,0,1.377-0.353,1.377-1.124v-8.255c-0.387-0.27-0.823-0.403-1.411-0.42v-0.319h2.637l7.908,8.238v-6.677
		c0-1.023-0.302-1.208-1.645-1.242v-0.319h3.929v0.319c-1.259,0-1.528,0.219-1.528,0.873v9.362H67.61z"/>
	<path fill="#FFFFFF" d="M80.002,22.05l-8.698-9.094v7.199c0,1.207,0.269,1.459,1.696,1.459v0.318h-3.896v-0.318h0.067
		c1.042,0,1.377-0.353,1.377-1.124v-8.255c-0.386-0.27-0.823-0.403-1.41-0.42v-0.319h2.636l7.909,8.238v-6.677
		c0-1.023-0.302-1.208-1.646-1.242v-0.319h3.929v0.319c-1.259,0-1.528,0.219-1.528,0.873v9.362H80.002z"/>
	<path fill="#FFFFFF" d="M88.365,22.201c-3.291,0-6.061-2.114-6.061-5.251c0-3.338,2.569-5.705,6.145-5.705
		c3.173,0,5.894,2.165,5.894,5.185C94.342,19.819,91.622,22.201,88.365,22.201z M88.012,11.665c-2.955,0-4.13,2.751-4.13,4.765
		c0,3.138,2.132,5.352,4.836,5.352c2.737,0,4.047-2.415,4.047-4.798C92.765,13.863,90.783,11.665,88.012,11.665z"/>
	<path fill="#FFFFFF" d="M99.585,22.201l-3.644-9.077c-0.42-1.057-0.621-1.309-1.646-1.309v-0.319h4.618v0.319
		C97.37,11.85,97,12.202,97.319,12.973l3.022,7.518l2.652-6.93c0.185-0.47,0.285-0.805,0.285-1.04c0-0.503-0.419-0.705-1.561-0.705
		v-0.319h3.896v0.319c-0.873,0-1.326,0.403-1.729,1.443l-3.459,8.942H99.585z"/>
	<path fill="#FFFFFF" d="M106.674,17.302l-0.973,2.635c-0.118,0.319-0.337,0.822-0.337,1.058c0,0.452,0.438,0.621,1.36,0.621h0.269
		v0.318h-3.879v-0.318c1.092-0.018,1.276-0.202,1.814-1.662l3.056-8.338l-0.151-0.37h1.46l3.511,9.312
		c0.336,0.889,0.688,1.058,1.527,1.058v0.318h-4.618v-0.318h0.438c0.957,0,1.311-0.1,1.311-0.571c0-0.268-0.119-0.52-0.186-0.688
		l-1.125-3.054H106.674z M108.387,12.655l-1.428,3.909h2.906L108.387,12.655z"/>
	<path fill="#FFFFFF" d="M118.48,20.39c0,0.906,0.301,1.225,1.326,1.225h0.62v0.318h-5.289v-0.318h0.622
		c1.024,0,1.326-0.319,1.326-1.225v-8.289h-2.922c-0.672,0-0.973,0.386-1.226,1.863h-0.302l0.268-2.719h0.319
		c0.018,0.101,0.084,0.168,0.185,0.201c0.101,0.034,0.219,0.051,0.336,0.051h8.076c0.236,0,0.488-0.051,0.521-0.252h0.318
		l0.27,2.719h-0.303c-0.252-1.477-0.554-1.863-1.227-1.863h-2.92V20.39z"/>
	<path fill="#FFFFFF" d="M128.303,21.933h-4.08v-0.318c1.041-0.051,1.26-0.319,1.26-1.443v-7.148c0-0.906-0.319-1.158-1.26-1.208
		v-0.319h4.08v0.319c-1.057,0-1.427,0.234-1.427,1.358v7.115c0,0.99,0.269,1.326,1.427,1.326V21.933z"/>
	<path fill="#FFFFFF" d="M135.172,22.201c-3.292,0-6.063-2.114-6.063-5.251c0-3.338,2.569-5.705,6.145-5.705
		c3.174,0,5.895,2.165,5.895,5.185C141.148,19.819,138.428,22.201,135.172,22.201z M134.818,11.665
		c-2.955,0-4.131,2.751-4.131,4.765c0,3.138,2.133,5.352,4.836,5.352c2.738,0,4.047-2.415,4.047-4.798
		C139.57,13.863,137.588,11.665,134.818,11.665z"/>
	<path fill="#FFFFFF" d="M152.602,22.05l-8.699-9.094v7.199c0,1.207,0.27,1.459,1.697,1.459v0.318h-3.896v-0.318h0.066
		c1.043,0,1.379-0.353,1.379-1.124v-8.255c-0.387-0.27-0.824-0.403-1.41-0.42v-0.319h2.635l7.908,8.238v-6.677
		c0-1.023-0.301-1.208-1.645-1.242v-0.319h3.93v0.319c-1.26,0-1.527,0.219-1.527,0.873v9.362H152.602z"/>
	<path fill="#FFFFFF" d="M54.287,0.191l1.867,5.067c0.232,0.654,0.272,0.762,0.982,0.803v0.245h-2.849V6.062
		c0.463-0.014,0.926-0.027,0.926-0.409c0-0.204-0.096-0.49-0.19-0.748L54.6,3.76h-1.963L52.324,4.55
		c-0.095,0.245-0.259,0.654-0.259,0.995c0,0.421,0.451,0.463,0.941,0.517v0.245h-2.345V6.062c0.695-0.136,0.777-0.368,1.091-1.145
		l1.69-4.331l-0.137-0.396H54.287z M52.787,3.366h1.677l-0.818-2.221L52.787,3.366z"/>
	<path fill="#FFFFFF" d="M64.825,1.935h-0.204c-0.259-0.504-0.791-1.485-2.14-1.485c-1.391,0-2.277,1.39-2.277,3.01
		c0,1.826,1.158,2.751,2.14,2.751c1.336,0,2.126-0.98,2.426-1.362h0.232c-0.205,0.558-0.328,0.803-0.764,1.511
		c-0.299-0.027-0.449-0.027-0.777,0c-0.791,0.068-0.94,0.082-1.172,0.082c-1.99,0-3.162-1.28-3.162-3.038
		c0-2.03,1.717-3.242,3.271-3.242c1.036,0,1.553,0.478,1.867,0.478c0.164,0,0.219-0.055,0.287-0.123h0.218L64.825,1.935z"/>
	<path fill="#FFFFFF" d="M70.039,0.191l1.868,5.067c0.232,0.654,0.272,0.762,0.981,0.803v0.245h-2.849V6.062
		c0.463-0.014,0.926-0.027,0.926-0.409c0-0.204-0.095-0.49-0.19-0.748L70.352,3.76H68.39L68.076,4.55
		c-0.095,0.245-0.259,0.654-0.259,0.995c0,0.421,0.45,0.463,0.941,0.517v0.245h-2.345V6.062c0.695-0.136,0.777-0.368,1.09-1.145
		l1.69-4.331l-0.136-0.396H70.039z M68.54,3.366h1.677l-0.818-2.221L68.54,3.366z"/>
	<path fill="#FFFFFF" d="M74.97,6.062c0.913-0.041,1.063-0.123,1.063-0.885V1.567c0-0.708-0.082-0.832-1.063-0.845V0.478
		c1.008-0.109,2.112-0.163,2.971-0.163c0.777,0,3.776,0.149,3.776,2.942c0,1.756-1.403,2.67-2.263,2.86
		c-0.695,0.149-1.431,0.19-2.099,0.19H74.97V6.062z M77.015,5.381c0,0.245,0,0.368,0.041,0.463c0.096,0.164,0.6,0.177,0.804,0.177
		c2.427,0,2.794-1.811,2.794-2.765c0-0.599-0.15-1.839-1.322-2.356c-0.682-0.299-1.554-0.286-2.317-0.272V5.381z"/>
	<path fill="#FFFFFF" d="M86.108,3.133h1.472c0.491,0,0.655,0,0.709-0.735h0.272v1.839H88.29c-0.027-0.75-0.137-0.804-0.805-0.804
		h-1.377v1.948c0,0.585,0.027,0.585,0.614,0.585h1.036c0.613,0,0.927-0.081,1.186-1.104h0.259l-0.123,1.444h-4.921V6.076
		c0.873,0.027,0.968-0.231,0.968-0.79V1.417c0-0.695-0.205-0.803-0.968-0.789V0.382h4.662l0.055,1.294H88.63
		c-0.149-0.899-0.367-0.994-1.035-0.994h-1.486V3.133z"/>
	<path fill="#FFFFFF" d="M99.82,0.382v0.246c-0.668,0-0.872,0.054-0.859,0.394c0,0.096,0.014,0.477,0.027,0.777l0.204,3.228
		c0.055,0.818,0.069,1.063,0.969,1.036v0.245h-2.836V6.062c0.586-0.041,0.969-0.081,0.969-0.504c0-0.149-0.014-0.449-0.027-0.613
		l-0.246-3.786l-2.249,5.148h-0.259l-2.181-5.148l-0.341,4.073c-0.013,0.137-0.027,0.326-0.027,0.408
		c0,0.314,0.341,0.423,0.832,0.423v0.245h-2.29V6.062c0.299-0.014,0.777-0.041,0.913-0.218c0.124-0.15,0.151-0.626,0.178-0.954
		l0.3-3.609c0.041-0.573-0.055-0.599-0.832-0.653V0.382h1.949l1.922,4.508l1.963-4.508H99.82z"/>
	<path fill="#FFFFFF" d="M104.893,0.382v0.246c-0.545,0.027-0.586,0.027-0.654,0.081c-0.055,0.041-0.082,0.109-0.082,0.164
		c0,0.109,0.19,0.422,0.313,0.626l1.282,1.934l1.062-1.838c0.15-0.259,0.314-0.545,0.314-0.722c0-0.231-0.314-0.245-0.723-0.245
		V0.382h2.168v0.246c-0.736,0.014-0.777,0.094-1.174,0.748l-1.458,2.521v1.198c0,0.791,0.067,0.967,0.668,0.967h0.381v0.245h-3.066
		V6.062h0.299c0.736,0,0.75-0.096,0.75-0.926V3.896l-1.759-2.656c-0.368-0.559-0.409-0.613-1.212-0.613V0.382H104.893z"/>
	<path fill="#FFFFFF" d="M120.663,0.382V1.58h-0.246c-0.095-0.64-0.149-0.694-0.218-0.762s-0.273-0.122-0.654-0.122h-1.363v2.315
		h1.5c0.49,0,0.723-0.123,0.735-0.64h0.246v1.663h-0.246c-0.04-0.614-0.177-0.722-0.681-0.722h-1.555v2.097
		c0,0.518,0,0.585,0.899,0.654v0.245h-2.657V6.062c0.708-0.068,0.777-0.177,0.777-0.708V1.458c0-0.681-0.055-0.75-0.777-0.83V0.382
		H120.663z"/>
	<path fill="#FFFFFF" d="M126.646,0.15c1.568,0,3.244,1.022,3.244,3.12c0,2.288-1.758,3.201-3.258,3.201
		c-1.486,0-3.258-0.913-3.258-3.201C123.375,1.172,125.133,0.15,126.646,0.15z M126.605,0.382c-1.404,0-2.168,1.349-2.168,2.779
		c0,1.498,0.367,2.098,0.75,2.479c0.41,0.409,0.9,0.6,1.432,0.6c1.035,0,2.209-0.776,2.209-2.956
		C128.828,1.186,127.777,0.382,126.605,0.382z"/>
	<path fill="#FFFFFF" d="M137.93,5.313l-0.754-0.753c-0.447-0.448-0.732-0.714-1.086-0.99c0.445-0.153,1.258-0.464,1.258-1.554
		c0-1.429-1.443-1.702-2.645-1.702c-0.967,0-1.825,0.108-2.398,0.163v0.245c0.682,0.041,0.764,0.041,0.873,0.191
		c0.109,0.136,0.109,0.354,0.109,0.503v3.855c0,0.517-0.082,0.79-0.75,0.79h-0.219v0.245h3.013V6.062h-0.396
		c-0.586,0-0.668-0.163-0.668-0.967V3.732h0.872c0.229,0.152,0.673,0.532,1.093,0.952l0.629,0.629
		c0.85,0.848,1.279,1.21,2.947,1.135V6.276C139.074,6.229,138.492,5.875,137.93,5.313z M134.882,3.488h-0.614V0.614
		c0.137-0.014,0.368-0.027,0.6-0.027c0.602,0,1.459,0.313,1.459,1.457C136.326,3.161,135.604,3.488,134.882,3.488z"/>
	<g>
		<path fill="#FFFFFF" d="M171.684,14.321v0.331c-1.027,0-1.305,0.092-1.561,0.348c-0.367,0.367-1.285,2.257-2.756,3.965
			c1.01,1.56,1.322,2.661,2.205,2.661c0.367,0,0.826-0.202,1.432-0.624l0.166,0.294c-0.791,0.624-1.561,0.953-2.26,0.953
			c-1.139,0-1.451-0.421-2.461-2.274c-1.359,1.449-2.883,2.274-4.188,2.274c-1.672,0-2.977-1.321-2.977-3.028
			c0-1.504,0.9-2.478,3.215-3.414c-0.791-0.678-1.305-1.597-1.305-2.386c0-1.284,0.992-2.128,2.498-2.128
			c1.359,0,2.334,0.734,2.334,1.78c0,0.845-0.736,1.671-2.076,2.331c1.193,0.808,2.314,1.927,3.195,3.25
			c0.865-1.083,2.297-3.139,2.297-3.634c0-0.257-0.201-0.368-1.01-0.368v-0.331H171.684z M163.014,21.332
			c1.066,0,2.443-0.716,3.232-1.67c-0.807-1.357-1.947-2.569-3.488-3.633c-1.396,0.972-1.967,1.835-1.967,2.974
			C160.791,20.396,161.691,21.332,163.014,21.332z M163.566,11.66c-0.754,0-1.213,0.514-1.213,1.321
			c0,0.772,0.459,1.523,1.359,2.203c0.844-0.496,1.193-1.064,1.193-1.982C164.906,12.265,164.373,11.66,163.566,11.66z"/>
	</g>
	<g>
		<path fill="#FFFFFF" d="M103.242,35.085c-0.42,1.443-0.771,1.896-1.947,1.896h-2.587c-0.621,0-0.906-0.151-0.906-0.922v-3.574
			h2.838c0.688,0,1.007,0.134,1.141,1.326h0.319v-3.189h-0.319c-0.084,0.974-0.37,1.259-0.974,1.259h-3.005v-4.127h3.543
			c0.604,0,1.024,0.302,1.242,1.729h0.303l-0.134-2.333h-8.06v0.319h0.369c1.125,0,1.343,0.403,1.343,1.343v7.08
			c0,0.999-0.235,1.368-1.548,1.375c-0.609-0.008-1.153-0.381-1.921-1.548l-1.977-2.999c2.049-0.705,2.2-2.265,2.2-2.718
			c0-1.393-0.99-2.147-1.679-2.482c-0.722-0.354-1.477-0.503-2.804-0.503c-1.427,0-2.854,0.067-4.265,0.184v0.302
			c1.376,0,1.629,0.319,1.629,1.158v6.745c0,1.443,0,1.879-1.613,1.879v0.301h4.803v-0.301c-1.679,0-1.796-0.386-1.796-1.845V33.19
			h2.232c0.236,0.268,1.176,1.762,1.394,2.097c1.462,2.248,2.522,2.298,3.73,2.299l0,0h8.482l0.269-2.5H103.242z M89.972,32.704
			c-0.588,0.168-1.125,0.185-1.864,0.185h-0.671v-5.538c0.922-0.016,1.981-0.05,2.787,0.336c1.125,0.537,1.343,1.711,1.343,2.382
			C91.567,31.076,91.131,32.368,89.972,32.704z"/>
		<path fill="#FFFFFF" d="M131.272,35.085c-0.42,1.443-0.772,1.896-1.947,1.896h-2.587c-0.621,0-0.906-0.151-0.906-0.922v-3.574
			h2.838c0.688,0,1.008,0.134,1.143,1.326h0.318v-3.189h-0.318c-0.085,0.974-0.37,1.259-0.975,1.259h-3.006v-4.127h3.543
			c0.605,0,1.025,0.302,1.242,1.729h0.303l-0.134-2.333h-8.06v0.319h0.369c1.125,0,1.343,0.403,1.343,1.343v7.08
			c0,0.999-0.235,1.368-1.548,1.375c-0.609-0.008-1.153-0.381-1.921-1.548l-1.977-2.999c2.049-0.705,2.2-2.265,2.2-2.718
			c0-1.393-0.991-2.147-1.68-2.482c-0.722-0.354-1.477-0.503-2.805-0.503c-1.426,0-2.854,0.067-4.264,0.184v0.302
			c1.376,0,1.629,0.319,1.629,1.158v6.745c0,1.443,0,1.879-1.613,1.879v0.301h4.803v-0.301c-1.68,0-1.797-0.386-1.797-1.845V33.19
			h2.232c0.236,0.268,1.178,1.762,1.395,2.097c1.462,2.248,2.521,2.298,3.73,2.299l0,0h8.482l0.269-2.5H131.272z M118.003,32.704
			c-0.589,0.168-1.125,0.185-1.864,0.185h-0.672v-5.538c0.924-0.016,1.981-0.05,2.787,0.336c1.125,0.537,1.344,1.711,1.344,2.382
			C119.598,31.076,119.162,32.368,118.003,32.704z"/>
		<g>
			<path fill="#FFFFFF" d="M176.998,37.581c-1.248,0-2.338,0-3.838-2.308c-0.217-0.335-1.162-1.834-1.398-2.104h-2.24v2.258
				c0,1.464,0.117,1.851,1.803,1.851v0.303h-4.82v-0.303c1.619,0,1.619-0.437,1.619-1.885v-6.77c0-0.841-0.254-1.161-1.635-1.161
				v-0.303c1.416-0.119,2.848-0.186,4.279-0.186c1.332,0,2.09,0.152,2.814,0.505c0.691,0.337,1.686,1.094,1.686,2.492
				c0,0.455-0.152,2.02-2.209,2.728l2.057,3.115c0.775,1.179,1.293,1.381,1.848,1.465L176.998,37.581z M169.521,32.867h0.674
				c0.74,0,1.279-0.018,1.871-0.186c1.162-0.336,1.6-1.633,1.6-2.644c0-0.673-0.219-1.852-1.348-2.392
				c-0.809-0.387-1.871-0.353-2.797-0.337V32.867z"/>
			<path fill="#FFFFFF" d="M176.92,35.021c0.354,1.499,1.533,2.374,2.848,2.374c1.129,0,2.326-0.657,2.326-1.987
				c0-2.425-5.41-3.166-5.41-6.112c0-1.397,1.281-2.441,3-2.441c1.416,0,1.701,0.42,2.291,0.42c0.135,0,0.203-0.033,0.305-0.169
				h0.268l0.289,2.139h-0.289c-0.471-1.212-1.549-1.987-2.711-1.987c-1.113,0-1.889,0.64-1.889,1.584c0,2.391,5.9,3.099,5.9,6.197
				c0,1.649-1.957,2.81-3.93,2.81c-0.924,0-2.105-0.455-2.342-0.455c-0.15,0-0.268,0.084-0.338,0.185h-0.285l-0.354-2.559H176.92z"
				/>
		</g>
		<path fill="#FFFFFF" d="M58.405,33.817h-0.319c-0.135-1.192-0.454-1.325-1.142-1.325h-2.837v3.573
			c0,0.772,0.285,0.922,0.906,0.922h2.586c1.176,0,1.528-0.453,1.948-1.896h0.303l-0.269,2.501h-8.917v-0.319h0.47
			c1.344,0,1.579-0.37,1.579-1.376v-7.08c0-0.94-0.219-1.343-1.343-1.343H51v-0.319h8.061l0.134,2.333h-0.303
			c-0.218-1.426-0.638-1.729-1.243-1.729h-3.542v4.129h3.005c0.604,0,0.89-0.286,0.974-1.259h0.319V33.817z"/>
		<path fill="#FFFFFF" d="M71.124,37.708l-8.698-9.092v7.197c0,1.208,0.268,1.46,1.696,1.46v0.319h-3.896v-0.319h0.067
			c1.041,0,1.377-0.354,1.377-1.124v-8.255c-0.387-0.269-0.823-0.402-1.411-0.419v-0.319h2.637l7.908,8.239v-6.677
			c0-1.024-0.302-1.208-1.646-1.242v-0.319h3.929v0.319c-1.259,0-1.528,0.218-1.528,0.872v9.362H71.124z"/>
		<path fill="#FFFFFF" d="M79.446,36.049c0,0.905,0.303,1.225,1.327,1.225h0.621v0.319h-5.289v-0.319h0.621
			c1.024,0,1.327-0.319,1.327-1.225v-8.29h-2.922c-0.672,0-0.974,0.387-1.226,1.863h-0.303l0.269-2.717h0.319
			c0.017,0.101,0.084,0.167,0.185,0.201s0.218,0.05,0.335,0.05h8.077c0.235,0,0.486-0.05,0.52-0.25h0.319l0.268,2.717h-0.302
			c-0.251-1.476-0.554-1.863-1.226-1.863h-2.922V36.049z"/>
		<path fill="#FFFFFF" d="M106.916,35.98c0,0.939,0.285,1.293,1.344,1.293h0.555v0.319h-4.652v-0.319h0.235
			c0.874,0,1.125-0.186,1.125-0.974v-7.936c0-0.621-0.201-0.889-0.79-0.889h-0.839v-0.319c0.47-0.017,1.293-0.066,2.116-0.1
			c0.822-0.034,1.629-0.05,2.082-0.05c3.509,0,4.316,1.677,4.316,2.969c0,1.963-1.579,3.205-4.064,3.205
			c-0.504,0-0.924-0.033-1.428-0.135V35.98z M106.916,32.726c0.219,0.051,0.588,0.135,0.908,0.135c1.83,0,3.005-1.242,3.005-2.936
			c0-1.309-0.521-2.602-2.754-2.602c-0.386,0-0.755,0-1.159,0.067V32.726z"/>
		<path fill="#FFFFFF" d="M142.881,37.708l-8.698-9.092v7.197c0,1.208,0.269,1.46,1.696,1.46v0.319h-3.896v-0.319h0.067
			c1.042,0,1.378-0.354,1.378-1.124v-8.255c-0.387-0.269-0.824-0.402-1.41-0.419v-0.319h2.635l7.908,8.239v-6.677
			c0-1.024-0.301-1.208-1.645-1.242v-0.319h3.93v0.319c-1.26,0-1.527,0.218-1.527,0.872v9.362H142.881z"/>
		<path fill="#FFFFFF" d="M152.049,33.817h-0.318c-0.135-1.192-0.453-1.325-1.141-1.325h-2.84v3.573
			c0,0.772,0.287,0.922,0.906,0.922h2.588c1.176,0,1.527-0.453,1.947-1.896h0.303l-0.27,2.501h-8.916v-0.319h0.471
			c1.342,0,1.578-0.37,1.578-1.376v-7.08c0-0.94-0.219-1.343-1.344-1.343h-0.369v-0.319h8.061l0.133,2.333h-0.303
			c-0.217-1.426-0.637-1.729-1.24-1.729h-3.545v4.129h3.006c0.605,0,0.891-0.286,0.975-1.259h0.318V33.817z"/>
		<path fill="#FFFFFF" d="M166.486,27.155v0.319c-1.125,0.018-1.527,0.469-1.527,1.543v4.53c0,2.082-1.328,4.313-4.971,4.313
			c-3.207,0-4.854-1.83-4.854-4.229v-4.898c0-1.074-0.303-1.241-1.443-1.259v-0.319h4.314v0.319h-0.15
			c-0.924,0-1.326,0.252-1.326,1.225v4.664c0,2.266,1.326,3.624,3.828,3.624c1.898,0,3.828-0.788,3.828-3.641v-3.909
			c0-1.61-0.252-1.896-1.645-1.963v-0.319H166.486z"/>
		<path fill="#FFFFFF" d="M186.564,32.609v3.187c0,1.091,0.219,1.478,1.344,1.478h0.051v0.319h-4.215v-0.319h0.1
			c0.99,0,1.326-0.27,1.326-1.225v-7.383c0-0.873-0.285-1.124-1.209-1.191v-0.319h3.998v0.319c-1.193,0-1.395,0.319-1.395,1.611
			v2.918h6.582v-3.305c0-0.889-0.285-1.225-1.326-1.225h-0.318v-0.319h4.314v0.319c-1.008,0.034-1.275,0.335-1.275,1.376v6.963
			c0,1.19,0.336,1.46,1.342,1.46h0.168v0.319h-4.752v-0.319h0.521c1.092,0,1.326-0.386,1.326-1.259v-3.406H186.564z"/>
		<path fill="#FFFFFF" d="M200.814,37.592h-4.08v-0.319c1.041-0.051,1.26-0.319,1.26-1.443v-7.147c0-0.906-0.32-1.158-1.26-1.208
			v-0.319h4.08v0.319c-1.057,0-1.426,0.235-1.426,1.359v7.114c0,0.989,0.268,1.325,1.426,1.325V37.592z"/>
		<path fill="#FFFFFF" d="M204.51,35.98c0,0.939,0.285,1.293,1.342,1.293h0.555v0.319h-4.65v-0.319h0.234
			c0.873,0,1.125-0.186,1.125-0.974v-7.936c0-0.621-0.201-0.889-0.789-0.889h-0.84v-0.319c0.471-0.017,1.293-0.066,2.115-0.1
			c0.824-0.034,1.629-0.05,2.084-0.05c3.508,0,4.314,1.677,4.314,2.969c0,1.963-1.578,3.205-4.064,3.205
			c-0.504,0-0.924-0.033-1.426-0.135V35.98z M204.51,32.726c0.217,0.051,0.588,0.135,0.906,0.135c1.83,0,3.006-1.242,3.006-2.936
			c0-1.309-0.521-2.602-2.754-2.602c-0.387,0-0.756,0-1.158,0.067V32.726z"/>
	</g>
</g>
</svg>
